<?xml version="1.0" encoding="utf-8"?>
<!-- Generator: Adobe Illustrator 15.0.0, SVG Export Plug-In . SVG Version: 6.00 Build 0)  -->
<!DOCTYPE svg PUBLIC "-//W3C//DTD SVG 1.1//EN" "http://www.w3.org/Graphics/SVG/1.1/DTD/svg11.dtd">
<svg version="1.1"
	 id="svg2" sodipodi:docname="BBC_Worldwide_Logo.svg" inkscape:version="0.48.2 r9819" xmlns:dc="http://purl.org/dc/elements/1.1/" xmlns:cc="http://creativecommons.org/ns#" xmlns:rdf="http://www.w3.org/1999/02/22-rdf-syntax-ns#" xmlns:svg="http://www.w3.org/2000/svg" xmlns:sodipodi="http://sodipodi.sourceforge.net/DTD/sodipodi-0.dtd" xmlns:inkscape="http://www.inkscape.org/namespaces/inkscape" sodipodi:version="0.32" inkscape:output_extension="org.inkscape.output.svg.inkscape"
	 xmlns="http://www.w3.org/2000/svg" xmlns:xlink="http://www.w3.org/1999/xlink" x="0px" y="0px" width="822.115px"
	 height="371.774px" viewBox="-314.628 -127.901 822.115 371.774" enable-background="new -314.628 -127.901 822.115 371.774"
	 xml:space="preserve">
<defs>


		<inkscape:perspective  id="perspective10" inkscape:persp3d-origin="372.04724 : 350.78739 : 1" inkscape:vp_x="0 : 526.18109 : 1" inkscape:vp_z="744.09448 : 526.18109 : 1" sodipodi:type="inkscape:persp3d" inkscape:vp_y="0 : 1000 : 0">
		</inkscape:perspective>

		<inkscape:perspective  id="perspective2485" inkscape:persp3d-origin="93.542999 : 18.537333 : 1" inkscape:vp_x="0 : 27.806 : 1" inkscape:vp_z="187.086 : 27.806 : 1" sodipodi:type="inkscape:persp3d" inkscape:vp_y="0 : 1000 : 0">
		</inkscape:perspective>

		<inkscape:perspective  id="perspective2546" inkscape:persp3d-origin="372.04724 : 350.78739 : 1" inkscape:vp_x="0 : 526.18109 : 1" inkscape:vp_z="744.09448 : 526.18109 : 1" sodipodi:type="inkscape:persp3d" inkscape:vp_y="0 : 1000 : 0">
		</inkscape:perspective>

		<inkscape:perspective  id="perspective2615" inkscape:persp3d-origin="372.04724 : 350.78739 : 1" inkscape:vp_x="0 : 526.18109 : 1" inkscape:vp_z="744.09448 : 526.18109 : 1" sodipodi:type="inkscape:persp3d" inkscape:vp_y="0 : 1000 : 0">
		</inkscape:perspective>

		<inkscape:perspective  id="perspective2461" inkscape:persp3d-origin="372.04724 : 350.78739 : 1" inkscape:vp_x="0 : 526.18109 : 1" inkscape:vp_z="744.09448 : 526.18109 : 1" sodipodi:type="inkscape:persp3d" inkscape:vp_y="0 : 1000 : 0">
		</inkscape:perspective>

		<inkscape:perspective  id="perspective2526" inkscape:persp3d-origin="372.04724 : 350.78739 : 1" inkscape:vp_x="0 : 526.18109 : 1" inkscape:vp_z="744.09448 : 526.18109 : 1" sodipodi:type="inkscape:persp3d" inkscape:vp_y="0 : 1000 : 0">
		</inkscape:perspective>

		<inkscape:perspective  id="perspective2576" inkscape:persp3d-origin="372.04724 : 350.78739 : 1" inkscape:vp_x="0 : 526.18109 : 1" inkscape:vp_z="744.09448 : 526.18109 : 1" sodipodi:type="inkscape:persp3d" inkscape:vp_y="0 : 1000 : 0">
		</inkscape:perspective>

		<inkscape:perspective  id="perspective2740" inkscape:persp3d-origin="372.04724 : 350.78739 : 1" inkscape:vp_x="0 : 526.18109 : 1" inkscape:vp_z="744.09448 : 526.18109 : 1" sodipodi:type="inkscape:persp3d" inkscape:vp_y="0 : 1000 : 0">
		</inkscape:perspective>

		<inkscape:perspective  id="perspective2950" inkscape:persp3d-origin="372.04724 : 350.78739 : 1" inkscape:vp_x="0 : 526.18109 : 1" inkscape:vp_z="744.09448 : 526.18109 : 1" sodipodi:type="inkscape:persp3d" inkscape:vp_y="0 : 1000 : 0">
		</inkscape:perspective>

		<inkscape:perspective  id="perspective2863" inkscape:persp3d-origin="93.542999 : 18.537333 : 1" inkscape:vp_x="0 : 27.806 : 1" inkscape:vp_z="187.086 : 27.806 : 1" sodipodi:type="inkscape:persp3d" inkscape:vp_y="0 : 1000 : 0">
		</inkscape:perspective>
</defs>
<sodipodi:namedview  id="base" inkscape:current-layer="layer1" inkscape:window-y="-8" inkscape:window-x="-8" fit-margin-bottom="0.1" fit-margin-right="0.1" inkscape:window-height="1028" inkscape:window-width="1920" inkscape:pageshadow="2" inkscape:pageopacity="0.0" inkscape:cy="-19.326427" inkscape:cx="493.33303" inkscape:zoom="1.0034479" fit-margin-left="0.1" fit-margin-top="0.1" showgrid="false" guidetolerance="10" gridtolerance="10000" objecttolerance="10" borderopacity="1.0" bordercolor="#666666" pagecolor="#000000" inkscape:window-maximized="1" inkscape:document-units="px">
	<inkscape:grid  type="xygrid" id="grid2500" enabled="true" visible="true" empspacing="5" snapvisiblegridlinesonly="true">
		</inkscape:grid>
</sodipodi:namedview>
<g>
	<g id="g3125">
		<path id="path3068" inkscape:connector-curvature="0" fill="#000000" d="M-88.571,157.891c-1.789-0.049-3.502,0.037-5.18,0.166
			c-12.019,0.914-20.813,4.791-28.824,12.787c-5.11,5.106-7.8,9.383-9.875,15.543c-1.31,3.893-1.953,6.785-2.268,11.174
			c-0.681,9.568,1.385,18.729,5.827,25.748c7.509,11.854,19.482,19.063,33.682,20.233c4.04,0.343,4.403,0.326,8.741,0
			c7.071-0.526,12.522-1.916,17.975-4.69c4.488-2.287,7.521-4.443,11.334-8.26c7.979-7.978,11.654-17.261,11.658-29.142
			c0.002-4.795-0.222-7.565-1.133-11.338c-3.304-13.61-13.459-24.764-26.88-29.631C-77.587,159.007-83.209,158.037-88.571,157.891
			L-88.571,157.891z M-90.514,172.789c2.692,0.027,5.465,0.412,8.259,1.136c9.249,2.383,16.938,10.077,19.267,19.428
			c0.52,2.131,0.643,3.383,0.648,7.287c0.004,5.18-0.423,7.352-1.943,11.176c-3.196,8.025-10.267,13.738-19.105,15.701
			c-2.355,0.522-9.139,0.854-11.495,0.485c-6.021-0.95-10.769-3.276-14.896-7.122c-3.567-3.326-5.944-7.248-7.448-12.47
			c-0.574-1.981-0.658-2.819-0.646-7.771c0.015-4.722,0.14-5.758,0.646-7.609c1.25-4.555,3.27-8.406,6.314-11.822
			C-105.958,175.643-98.595,172.695-90.514,172.789L-90.514,172.789z"/>
		<path id="path3064" inkscape:connector-curvature="0" fill="#000000" d="M200.625,242.964
			c-0.214-0.517-8.559-19.675-18.544-42.568c-9.979-22.902-18.215-41.801-18.299-41.994c-0.117-0.279,1.745-0.354,8.75-0.354h8.895
			l0.357,0.778c0.194,0.431,5,11.588,10.678,24.795c11.037,25.685,10.959,25.509,11.174,25.123c0.07-0.139,4.89-11.604,10.7-25.481
			l10.563-25.228l6.203,0.07l6.202,0.074l10.488,25.348c5.767,13.941,10.565,25.293,10.669,25.234
			c0.093-0.063,5.057-11.502,11.021-25.414l10.84-25.312h8.857c4.879,0,8.86,0.039,8.86,0.101c0,0.049-8.313,19.336-18.471,42.844
			l-18.465,42.748l-2.674,0.068l-2.672,0.077l-12.289-29.159c-6.76-16.031-12.377-29.203-12.482-29.269
			c-0.1-0.063-5.67,13.021-12.365,29.078l-12.178,29.193l-2.717,0.078l-2.717,0.067l-0.388-0.928v0.028H200.625z"/>
		<path id="path3062" inkscape:connector-curvature="0" fill="#000000" d="M468.303,156.434c-6.421,0.412-12.798,2.229-17.651,5.348
			c-6.159,3.955-11.035,9.418-14.247,16.188c-3.037,6.414-4.375,13.53-4.375,21.535c0,10.705,2.536,19.641,7.938,27.526
			c3.013,4.4,8.716,9.668,13.114,12.144c3.387,1.905,8.92,3.616,14.091,4.213c3.067,0.352,13.432,0.039,16.833-0.488
			c7.098-1.094,13.396-3.467,19.595-7.283l2.43-1.457v-8.098c0-4.434-0.103-8.103-0.161-8.103c-0.068,0-1.157,0.771-2.43,1.625
			c-5.176,3.48-11.545,6.25-17.972,7.611c-4.111,0.869-11.589,0.963-15.221,0.32c-11.021-1.93-18.798-9.457-21.052-20.563
			c-0.313-1.53-0.484-3.332-0.484-4.045v-1.457h29.309h29.468v-3.239c0-18.027-7.733-32.363-21.047-38.697
			c-5.216-2.482-11.722-3.482-18.133-3.08H468.303z M469.763,170.844c1.816-0.076,3.566,0.129,4.852,0.326
			c9.245,1.454,15.306,8.284,16.354,18.618l0.162,1.783h-21.046c-11.615,0-21.216-0.043-21.216-0.16
			c0.011-0.881,1.291-5.182,2.104-7.127c2.745-6.53,7.731-11.147,13.931-12.791C466.071,171.186,467.933,170.927,469.763,170.844
			L469.763,170.844z"/>
		<path id="path3058" inkscape:connector-curvature="0" fill="#000000" d="M-263.587,242.382
			c-0.076-0.195-11.558-28.937-25.517-63.873c-13.96-34.938-25.441-63.683-25.521-63.877c-0.107-0.279,1.814-0.357,9.057-0.357
			h9.193l17.479,43.912c9.611,24.147,17.562,43.91,17.662,43.91c0.104,0,8.084-19.728,17.737-43.845l17.552-43.836h8.702h8.706
			l17.686,43.976c9.728,24.188,17.771,43.887,17.869,43.774c0.099-0.127,7.906-19.846,17.349-43.838
			c9.44-23.996,17.262-43.721,17.383-43.844c0.119-0.121,4.23-0.188,9.146-0.141l8.937,0.065l-25.678,64.095l-25.678,64.092
			l-2.093,0.067l-2.092,0.078l-20.749-51.875c-11.412-28.528-20.828-51.821-20.924-51.758c-0.09,0.059-9.595,23.396-21.103,51.857
			l-20.925,51.75h-2.021c-1.356,0-2.065-0.121-2.157-0.355V242.382L-263.587,242.382z"/>
		<path id="path3056" inkscape:connector-curvature="0" fill="#000000" d="M-29.89,200.248v-42.202h8.342h8.339l0.073,9.561
			l0.072,9.572l2.121-3.244c5.539-8.478,11.404-14.156,16.971-16.424c6.978-2.854,15.816-0.17,24.4,7.41l1.066,0.938l-3.988,6.678
			c-2.195,3.677-4.177,6.98-4.406,7.336l-0.418,0.65l-1.551-1.422c-1.927-1.771-5.742-4.336-7.775-5.234
			c-2.123-0.938-4.955-1.61-6.784-1.604c-7.755,0.024-15.355,6.932-18.378,16.723c-1.325,4.301-1.396,5.82-1.399,30.375v23.096
			h-8.343h-8.345V200.25h0.003V200.248z"/>
		<path id="path3054" inkscape:connector-curvature="0" fill="#000000" d="M42.734,178.363v-64.09h8.2h8.203v64.09v64.09h-8.203
			h-8.2V178.363z"/>
		<path id="path3052" inkscape:connector-curvature="0" fill="#000000" d="M136.667,114.337v22.51
			c0,12.399-0.074,22.578-0.156,22.668c-0.089,0.084-1.33-0.297-2.92-0.812c-17.707-5.733-35.567-1.457-46.309,11.006
			c-6.959,8.084-10.202,17.498-10.201,29.31c0.004,14.369,4.248,25.297,13.117,33.52c3.436,3.185,8.461,6.195,12.79,7.607
			c2.923,0.955,7.646,1.713,11.175,1.94c1.79,0.119,11.213,0.306,21.047,0.328h17.977v-64.121v-63.957h-8.262L136.667,114.337
			L136.667,114.337z M121.935,170.688c4.292,0.146,8.738,1.182,12.951,3.074l1.781,0.807v26.717v26.718l-10.523-0.158
			c-5.792-0.023-11.031,0.045-11.66,0c-5.795-0.533-9.401-2.174-12.95-5.67c-2.704-2.664-4.349-5.047-5.507-8.095
			c-4.008-10.557-2.577-24.711,3.238-32.873c1.42-1.985,4.428-5.024,6.315-6.315c3.273-2.229,7.273-3.519,12.141-4.047
			C119.124,170.697,120.508,170.639,121.935,170.688L121.935,170.688z"/>
		<path id="path3048" inkscape:connector-curvature="0" fill="#000000" d="M307.012,200.248v-42.202h8.202h8.2v42.202v42.205h-8.2
			h-8.202V200.248z"/>
		<path id="path3046" inkscape:connector-curvature="0" fill="#000000" d="M398.724,114.337v22.51
			c0,12.399-0.078,22.578-0.164,22.668c-0.086,0.084-1.486-0.297-3.078-0.812c-17.705-5.733-35.403-1.457-46.143,11.006
			c-6.959,8.084-10.367,17.498-10.361,29.31c0,14.369,4.402,25.297,13.273,33.52c3.438,3.185,8.46,6.195,12.793,7.607
			c2.917,0.955,7.479,1.713,11.011,1.94c1.789,0.119,11.37,0.306,21.214,0.328h17.81v-64.121v-63.957h-8.099L398.724,114.337
			L398.724,114.337z M383.986,170.688c4.288,0.146,8.579,1.182,12.793,3.074l1.944,0.807v26.717v26.718l-10.527-0.158
			c-5.796-0.023-11.036-0.117-11.658-0.166c-5.791-0.527-9.564-2.008-13.112-5.504c-2.707-2.664-4.189-5.047-5.347-8.095
			c-4.009-10.557-2.738-24.711,3.078-32.871c1.418-1.987,4.596-5.026,6.479-6.313c3.277-2.232,7.108-3.521,11.979-4.051
			C381.011,170.697,382.556,170.639,383.986,170.688L383.986,170.688z"/>
		<path id="path2982" inkscape:connector-curvature="0" fill="#000000" d="M311.698,141.439c-1.99-0.84-4.139-2.846-5.205-4.854
			c-0.674-1.266-0.76-1.729-0.76-4.266c0-2.438,0.086-3.022,0.662-4.09c1.002-1.885,3.039-3.908,4.818-4.785
			c1.36-0.672,1.944-0.783,4-0.783c2.004,0,2.664,0.127,3.985,0.746c5.144,2.42,7.273,8.402,4.769,13.338
			c-2.205,4.343-7.92,6.525-12.273,4.693L311.698,141.439L311.698,141.439z"/>
	</g>
	<g id="g3100" transform="matrix(0.40508788,0,0,0.40508788,92.893973,98.055559)">
		<g id="g3102" transform="matrix(0.82302261,0,0,-0.82302261,189.63913,997.27701)">
			<path id="path3104" inkscape:connector-curvature="0" fill="#000000" d="M-130.028,1542.758c0-58.29-72.543-54.836-72.543-54.836
				h-72.537v105.355h72.537C-127.864,1593.701-130.028,1542.758-130.028,1542.758 M-275.108,1753.892h55.267
				c57.426-3.026,55.273-45.759,55.273-45.759c0-53.117-63.477-53.981-63.477-53.981h-47.062V1753.892L-275.108,1753.892z
				 M-143.411,1633.429c0,0,49.649,21.157,49.209,77.288c0,0,7.566,91.966-114.306,103.196h-135.255v-385.579h155.01
				c0,0,129.532-0.431,129.532,108.808C-59.222,1537.142-56.205,1611.411-143.411,1633.429 M-493.384,1889.464H75.922v-536.491
				h-569.306V1889.464L-493.384,1889.464z"/>
		</g>
		<g id="g3106" transform="matrix(0.82302261,0,0,-0.82302261,85.355129,997.27701)">
			<path id="path3108" inkscape:connector-curvature="0" fill="#000000" d="M-659.846,1542.758c0-58.29-72.54-54.836-72.54-54.836
				h-72.528v105.355h72.528C-657.685,1593.701-659.846,1542.758-659.846,1542.758 M-804.914,1753.892h55.267
				c57.426-3.026,55.267-45.759,55.267-45.759c0-53.117-63.474-53.981-63.474-53.981h-47.059V1753.892L-804.914,1753.892z
				 M-673.226,1633.429c0,0,49.649,21.157,49.224,77.288c0,0,7.548,91.966-114.321,103.196H-873.57v-385.579h155.01
				c0,0,129.532-0.431,129.532,108.808C-589.029,1537.142-586.009,1611.411-673.226,1633.429 M-1023.202,1889.464h569.32v-536.491
				h-569.32V1889.464z"/>
		</g>
		<g id="g3110" transform="matrix(0.82302261,0,0,-0.82302261,308.1885,958.5961)">
			<path id="path3112" inkscape:connector-curvature="0" fill="#000000" d="M472.255,1739.272v-71.239
				c0,0-69.517,42.739-146.372,43.606c0,0-143.346,2.8-149.825-137.42c0,0-5.19-128.987,148.094-136.333
				c0,0,64.33-7.768,151.556,47.932v-73.834c0,0-117.016-69.514-252.591-15.976c0,0-113.987,41.658-118.313,178.211
				c0,0-4.745,140.44,147.244,187.072c0,0,40.58,15.548,113.557,8.635C365.606,1769.925,409.209,1765.608,472.255,1739.272
				 M19.089,1305.974h569.297v536.491H19.089V1305.974L19.089,1305.974z"/>
		</g>
	</g>
</g>
</svg>
