<?xml version="1.0" encoding="utf-8"?>
<!-- Generator: Adobe Illustrator 15.0.0, SVG Export Plug-In . SVG Version: 6.00 Build 0)  -->
<!DOCTYPE svg PUBLIC "-//W3C//DTD SVG 1.1//EN" "http://www.w3.org/Graphics/SVG/1.1/DTD/svg11.dtd">
<svg version="1.1"
	 id="svg2985" inkscape:version="0.48.5 r10040" sodipodi:docname="EFL_logo_(shield).png" xmlns:cc="http://creativecommons.org/ns#" xmlns:svg="http://www.w3.org/2000/svg" xmlns:dc="http://purl.org/dc/elements/1.1/" xmlns:sodipodi="http://sodipodi.sourceforge.net/DTD/sodipodi-0.dtd" xmlns:inkscape="http://www.inkscape.org/namespaces/inkscape" xmlns:rdf="http://www.w3.org/1999/02/22-rdf-syntax-ns#"
	 xmlns="http://www.w3.org/2000/svg" xmlns:xlink="http://www.w3.org/1999/xlink" x="0px" y="0px" width="863.615px"
	 height="400.049px" viewBox="182.591 169.529 863.615 400.049" enable-background="new 182.591 169.529 863.615 400.049"
	 xml:space="preserve">
<sodipodi:namedview  id="namedview2987" inkscape:current-layer="svg2985" fit-margin-bottom="0" inkscape:pageshadow="2" inkscape:window-height="706" fit-margin-right="0" inkscape:window-y="-8" inkscape:pageopacity="0" inkscape:window-x="-8" inkscape:window-width="1366" fit-margin-left="0" inkscape:cy="849.47659" gridtolerance="10" borderopacity="1" guidetolerance="10" inkscape:cx="-220.2132" pagecolor="#ffffff" inkscape:zoom="0.5" fit-margin-top="0" objecttolerance="10" bordercolor="#666666" showgrid="false" inkscape:window-maximized="1">
	</sodipodi:namedview>
<g>
	<g>
		<g id="g3044">
			<path id="path2995" inkscape:connector-curvature="0" fill="#001189" d="M247.782,291.693c0,13.237-10.371,23.967-23.163,23.967
				c-12.793,0-23.164-10.73-23.164-23.967c0-13.236,10.371-23.967,23.164-23.967C237.411,267.726,247.782,278.457,247.782,291.693
				L247.782,291.693z"/>
			<path id="path2998" inkscape:connector-curvature="0" fill="#001189" d="M310.325,290.263c0,15.515-12.155,28.092-27.148,28.092
				c-14.995,0-27.149-12.577-27.149-28.092c0-15.514,12.154-28.091,27.149-28.091C298.17,262.172,310.325,274.75,310.325,290.263z"
				/>
			<path id="path3000" inkscape:connector-curvature="0" fill="#001189" d="M364.783,321.592c0,16.445-12.883,29.777-28.776,29.777
				c-15.893,0-28.776-13.332-28.776-29.777c0-16.444,12.884-29.775,28.776-29.775C351.9,291.816,364.783,305.147,364.783,321.592z"
				/>
			<path id="path3002" inkscape:connector-curvature="0" fill="#001189" d="M285.33,344.243c0,14.725-11.537,26.663-25.768,26.663
				c-14.231,0-25.768-11.938-25.768-26.663s11.537-26.663,25.768-26.663C273.793,317.581,285.33,329.518,285.33,344.243
				L285.33,344.243z"/>
			<path id="path3004" inkscape:connector-curvature="0" fill="#001189" d="M228.403,338.517c0,11.934-9.502,21.609-21.221,21.609
				c-11.72,0-21.221-9.675-21.221-21.609c0-11.935,9.501-21.609,21.221-21.609C218.901,316.907,228.403,326.582,228.403,338.517z"/>
			<path id="path3006" inkscape:connector-curvature="0" fill="#001189" d="M333.503,375.314c0,14.397-11.462,26.069-25.601,26.069
				s-25.6-11.672-25.6-26.069c0-14.396,11.461-26.068,25.6-26.068S333.503,360.917,333.503,375.314z"/>
			<path id="path3008" inkscape:connector-curvature="0" fill="#001189" d="M223.061,386.351c0,11.563-9.059,20.935-20.235,20.935
				c-11.175,0-20.235-9.372-20.235-20.935s9.06-20.936,20.235-20.936S223.061,374.789,223.061,386.351z"/>
			<path id="path3010-9" inkscape:connector-curvature="0" fill="#001189" d="M270.85,397.13c0,11.936-9.352,21.61-20.886,21.61
				c-11.535,0-20.885-9.675-20.885-21.61c0-11.935,9.351-21.609,20.885-21.609S270.85,385.196,270.85,397.13z"/>
			<path id="path3012" inkscape:connector-curvature="0" fill="#001189" d="M311.947,423.406c0,11.935-9.352,21.609-20.886,21.609
				c-11.535,0-20.886-9.675-20.886-21.609c0-11.936,9.351-21.61,20.886-21.61C302.595,401.796,311.947,411.47,311.947,423.406z"/>
			<path id="path3014" inkscape:connector-curvature="0" fill="#001189" d="M309.252,467.988c0,10.009-7.993,18.124-17.854,18.124
				c-9.861,0-17.855-8.115-17.855-18.124c0-10.011,7.994-18.124,17.855-18.124C301.259,449.864,309.252,457.977,309.252,467.988z"/>
			<path id="path3016" inkscape:connector-curvature="0" fill="#001189" d="M268.062,442.531c0,10.089-7.994,18.267-17.854,18.267
				s-17.855-8.178-17.855-18.267c0-10.09,7.994-18.27,17.855-18.27C260.068,424.262,268.062,432.441,268.062,442.531z"/>
			<path id="path3018" inkscape:connector-curvature="0" fill="#001189" d="M226.42,428.698c0,10.089-7.994,18.268-17.855,18.268
				c-9.86,0-17.854-8.179-17.854-18.268c0-10.09,7.994-18.27,17.854-18.27C218.427,410.429,226.42,418.608,226.42,428.698z"/>
			<path id="path3020" inkscape:connector-curvature="0" fill="#001189" d="M233.624,461.644c0,7.595-6.058,13.751-13.531,13.751
				c-7.473,0-13.531-6.156-13.531-13.751s6.058-13.752,13.531-13.752C227.566,447.892,233.624,454.05,233.624,461.644z"/>
			<path id="path3022" inkscape:connector-curvature="0" fill="#001189" d="M271.377,477.927c0,7.595-6.059,13.751-13.532,13.751
				c-7.473,0-13.531-6.156-13.531-13.751s6.059-13.751,13.531-13.751C265.318,464.176,271.377,470.332,271.377,477.927z"/>
			<path id="path3024" inkscape:connector-curvature="0" fill="#001189" d="M243.999,487.371c0,6.198-4.944,11.224-11.044,11.224
				s-11.044-5.025-11.044-11.224c0-6.199,4.944-11.225,11.044-11.225S243.999,481.172,243.999,487.371z"/>
			<path id="path3026" inkscape:connector-curvature="0" fill="#001189" d="M259.584,507.399c0,5.801-4.628,10.504-10.335,10.504
				c-5.708,0-10.336-4.703-10.336-10.504s4.627-10.504,10.336-10.504C254.956,496.895,259.584,501.598,259.584,507.399z"/>
			<path id="path3028" inkscape:connector-curvature="0" fill="#001189" d="M284.802,505.165c0,5.762-4.596,10.433-10.265,10.433
				s-10.265-4.671-10.265-10.433c0-5.761,4.596-10.431,10.265-10.431S284.802,499.404,284.802,505.165z"/>
			<path id="path3030" inkscape:connector-curvature="0" fill="#001189" d="M316.188,502.423c0,7.594-6.059,13.751-13.531,13.751
				c-7.474,0-13.532-6.157-13.532-13.751c0-7.596,6.059-13.752,13.532-13.752C310.13,488.671,316.188,494.827,316.188,502.423z"/>
			<path id="path3032" inkscape:connector-curvature="0" fill="#001189" d="M302.093,532.399c0,5.761-4.596,10.431-10.266,10.431
				c-5.668,0-10.265-4.67-10.265-10.431c0-5.762,4.596-10.433,10.265-10.433C297.497,521.967,302.093,526.637,302.093,532.399z"/>
			<path id="path3034" inkscape:connector-curvature="0" fill="#001189" d="M328.605,530.032c0,6.124-4.886,11.09-10.913,11.09
				s-10.913-4.965-10.913-11.09s4.886-11.092,10.913-11.092S328.605,523.907,328.605,530.032z"/>
			<path id="path3036" inkscape:connector-curvature="0" fill="#001189" d="M278.318,526.954c0,4.347-3.467,7.869-7.743,7.869
				s-7.743-3.522-7.743-7.869c0-4.346,3.467-7.868,7.743-7.868S278.318,522.608,278.318,526.954z"/>
			<path id="path3038" inkscape:connector-curvature="0" fill="#001189" d="M315.223,548.712c0,4.027-3.213,7.293-7.176,7.293
				c-3.964,0-7.176-3.266-7.176-7.293s3.212-7.293,7.176-7.293C312.01,541.419,315.223,544.684,315.223,548.712z"/>
			<path id="path3040" inkscape:connector-curvature="0" fill="#001189" d="M340.998,550.901c0,5.316-4.242,9.627-9.473,9.627
				c-5.231,0-9.473-4.311-9.473-9.627s4.241-9.627,9.473-9.627C336.756,541.274,340.998,545.585,340.998,550.901z"/>
			<path id="path3042" inkscape:connector-curvature="0" fill="#001189" d="M358.162,560.734c0,3.744-2.986,6.78-6.672,6.78
				c-3.684,0-6.671-3.036-6.671-6.78s2.987-6.779,6.671-6.779C355.176,553.955,358.162,556.99,358.162,560.734z"/>
		</g>
		<g id="g3194">
			<g id="g3168">
				<path id="path3072" inkscape:connector-curvature="0" fill="#001189" d="M525.573,294.369
					c-12.172-5.202-17.963-18.955-12.936-30.719c5.027-11.763,18.97-17.082,31.142-11.879c12.172,5.202,17.964,18.955,12.937,30.718
					C551.687,294.252,537.745,299.572,525.573,294.369z"/>
				<path id="path3074" inkscape:connector-curvature="0" fill="#001189" d="M494.24,347.254
					c-14.267-6.098-21.055-22.217-15.162-36.004c5.893-13.788,22.234-20.022,36.501-13.924
					c14.267,6.097,21.055,22.217,15.161,36.004C524.848,347.117,508.506,353.351,494.24,347.254L494.24,347.254z"/>
				<path id="path3076" inkscape:connector-curvature="0" fill="#001189" d="M441.149,379.832
					c-15.122-6.463-22.317-23.549-16.071-38.164c6.245-14.614,23.567-21.222,38.689-14.759c15.121,6.463,22.316,23.549,16.07,38.163
					C473.592,379.686,456.27,386.294,441.149,379.832z"/>
				<path id="path3078" inkscape:connector-curvature="0" fill="#001189" d="M457.885,299.021
					c-13.54-5.787-19.983-21.086-14.391-34.172s21.104-19.002,34.645-13.216c13.539,5.787,19.982,21.087,14.391,34.173
					C486.935,298.892,471.426,304.809,457.885,299.021z"/>
				<path id="path3080" inkscape:connector-curvature="0" fill="#001189" d="M492.439,254.113
					c-10.975-4.69-16.137-17.229-11.531-28.006c4.605-10.777,17.236-15.711,28.211-11.021c10.974,4.69,16.137,17.229,11.531,28.006
					C516.044,253.869,503.413,258.803,492.439,254.113L492.439,254.113z"/>
				<path id="path3082" inkscape:connector-curvature="0" fill="#001189" d="M409.228,324.768
					c-13.238-5.659-19.466-20.784-13.91-33.786c5.557-13,20.793-18.953,34.032-13.295c13.239,5.658,19.468,20.784,13.91,33.785
					C437.705,324.474,422.468,330.426,409.228,324.768L409.228,324.768z"/>
				<path id="path3084" inkscape:connector-curvature="0" fill="#001189" d="M454.588,225.792
					c-10.633-4.544-15.691-16.558-11.3-26.834c4.393-10.276,16.571-14.922,27.204-10.379c10.632,4.544,15.69,16.559,11.299,26.834
					C477.399,225.689,465.219,230.336,454.588,225.792L454.588,225.792z"/>
				<path id="path3086" inkscape:connector-curvature="0" fill="#001189" d="M420.131,259.736
					c-10.975-4.69-16.195-17.091-11.663-27.698c4.534-10.607,17.104-15.403,28.079-10.713c10.975,4.691,16.196,17.091,11.663,27.699
					C443.677,259.63,431.105,264.426,420.131,259.736L420.131,259.736z"/>
				<path id="path3088" inkscape:connector-curvature="0" fill="#001189" d="M375.208,281.436
					c-10.975-4.69-16.195-17.091-11.663-27.698c4.534-10.607,17.105-15.403,28.079-10.713c10.975,4.691,16.196,17.092,11.663,27.699
					C398.754,281.33,386.182,286.127,375.208,281.436L375.208,281.436z"/>
				<path id="path3090" inkscape:connector-curvature="0" fill="#001189" d="M339.306,258.556
					c-9.204-3.934-13.524-14.474-9.649-23.541c3.876-9.067,14.479-13.229,23.683-9.295c9.205,3.934,13.524,14.473,9.649,23.542
					C359.113,258.328,348.51,262.49,339.306,258.556z"/>
				<path id="path3092" inkscape:connector-curvature="0" fill="#001189" d="M381.209,235.295
					c-9.277-3.965-13.657-14.529-9.782-23.597c3.876-9.067,14.537-13.203,23.815-9.238c9.277,3.966,13.657,14.53,9.781,23.598
					C401.148,235.125,390.486,239.26,381.209,235.295z"/>
				<path id="path3094" inkscape:connector-curvature="0" fill="#001189" d="M414.328,207.051
					c-9.277-3.965-13.657-14.53-9.782-23.598c3.875-9.067,14.538-13.203,23.815-9.238c9.277,3.966,13.656,14.531,9.781,23.598
					C434.267,206.88,423.605,211.016,414.328,207.051z"/>
				<path id="path3096" inkscape:connector-curvature="0" fill="#001189" d="M382.353,195.54
					c-6.983-2.984-10.265-10.975-7.327-17.847c2.937-6.872,10.979-10.022,17.963-7.038s10.265,10.975,7.327,17.847
					C397.38,195.374,389.338,198.525,382.353,195.54L382.353,195.54z"/>
				<path id="path3098" inkscape:connector-curvature="0" fill="#001189" d="M348.51,222.127
					c-6.983-2.985-10.264-10.976-7.327-17.848c2.937-6.872,10.979-10.022,17.963-7.038c6.984,2.985,10.265,10.975,7.327,17.847
					C363.537,221.961,355.494,225.111,348.51,222.127z"/>
				<path id="path3100" inkscape:connector-curvature="0" fill="#001189" d="M353.468,193.241c-5.7-2.436-8.378-8.958-5.98-14.567
					c2.397-5.608,8.961-8.18,14.661-5.744c5.7,2.436,8.378,8.958,5.98,14.567C365.732,193.105,359.168,195.677,353.468,193.241z"/>
				<path id="path3102" inkscape:connector-curvature="0" fill="#001189" d="M327.197,196.242c-5.335-2.28-7.84-8.383-5.598-13.632
					c2.244-5.249,8.387-7.656,13.721-5.376s7.841,8.383,5.597,13.632C338.674,196.115,332.531,198.522,327.197,196.242
					L327.197,196.242z"/>
				<path id="path3104" inkscape:connector-curvature="0" fill="#001189" d="M316.458,217.427
					c-5.298-2.265-7.786-8.326-5.558-13.539c2.227-5.212,8.328-7.603,13.625-5.339c5.298,2.264,7.787,8.326,5.559,13.538
					C327.856,217.301,321.756,219.692,316.458,217.427z"/>
				<path id="path3106" inkscape:connector-curvature="0" fill="#001189" d="M303.188,246.214
					c-6.985-2.984-10.265-10.975-7.327-17.847c2.937-6.872,10.979-10.023,17.962-7.039c6.984,2.984,10.265,10.974,7.327,17.847
					C318.214,246.047,310.172,249.199,303.188,246.214z"/>
				<path id="path3108" inkscape:connector-curvature="0" fill="#001189" d="M284.045,219.742
					c-5.298-2.264-7.786-8.325-5.559-13.538c2.228-5.212,8.328-7.603,13.626-5.339c5.298,2.264,7.786,8.326,5.559,13.539
					C295.443,219.617,289.342,222.007,284.045,219.742L284.045,219.742z"/>
				<path id="path3110" inkscape:connector-curvature="0" fill="#001189" d="M274.072,242.746
					c-5.633-2.407-8.277-8.851-5.909-14.393c2.369-5.542,8.854-8.083,14.487-5.676c5.633,2.407,8.277,8.852,5.909,14.394
					C286.19,242.613,279.705,245.154,274.072,242.746z"/>
				<path id="path3112" inkscape:connector-curvature="0" fill="#001189" d="M300.123,201.173
					c-3.996-1.708-5.873-6.281-4.193-10.212c1.681-3.932,6.283-5.735,10.279-4.027c3.996,1.708,5.873,6.279,4.192,10.212
					C308.721,201.078,304.119,202.881,300.123,201.173z"/>
				<path id="path3114" inkscape:connector-curvature="0" fill="#001189" d="M263.306,222.524c-3.703-1.583-5.442-5.82-3.886-9.464
					c1.558-3.645,5.823-5.316,9.526-3.733s5.443,5.82,3.887,9.465C271.275,222.435,267.01,224.107,263.306,222.524z"/>
				<path id="path3116" inkscape:connector-curvature="0" fill="#001189" d="M247.707,243.058c-4.889-2.09-7.185-7.683-5.13-12.493
					c2.056-4.811,7.686-7.017,12.573-4.927c4.891,2.09,7.186,7.683,5.131,12.493C258.224,242.942,252.595,245.147,247.707,243.058z"
					/>
				<path id="path3118" inkscape:connector-curvature="0" fill="#001189" d="M230.765,253.248c-3.443-1.471-5.061-5.412-3.612-8.799
					c1.447-3.389,5.413-4.942,8.856-3.471c3.444,1.472,5.061,5.412,3.613,8.8C238.174,253.166,234.208,254.72,230.765,253.248z"/>
			</g>
		</g>
		<g id="g3221" transform="matrix(-0.50843058,0.86110298,-0.86110298,-0.50843058,152.52515,40.169071)">
			<g id="g3223">
				<path id="path3225" inkscape:connector-curvature="0" fill="#001189" d="M303.68-444.096
					c-12.171-5.202-17.963-18.955-12.936-30.718s18.969-17.082,31.143-11.881c12.171,5.202,17.964,18.956,12.936,30.719
					C329.795-444.212,315.851-438.893,303.68-444.096L303.68-444.096z"/>
				<path id="path3227" inkscape:connector-curvature="0" fill="#001189" d="M272.346-391.21
					c-14.267-6.097-21.056-22.216-15.163-36.005c5.892-13.788,22.234-20.021,36.501-13.924
					c14.266,6.097,21.054,22.217,15.162,36.004C302.954-391.346,286.612-385.112,272.346-391.21L272.346-391.21z"/>
				<path id="path3229" inkscape:connector-curvature="0" fill="#001189" d="M219.255-358.633
					c-15.122-6.462-22.318-23.549-16.071-38.163c6.246-14.614,23.568-21.221,38.689-14.759
					c15.122,6.462,22.317,23.549,16.071,38.163C251.699-358.777,234.377-352.17,219.255-358.633z"/>
				<path id="path3231" inkscape:connector-curvature="0" fill="#001189" d="M235.992-439.443
					c-13.541-5.786-19.984-21.086-14.392-34.172c5.594-13.085,21.104-19.003,34.643-13.216
					c13.541,5.787,19.984,21.087,14.392,34.172C265.042-439.572,249.531-433.654,235.992-439.443z"/>
				<path id="path3233" inkscape:connector-curvature="0" fill="#001189" d="M270.545-484.351
					c-10.973-4.69-16.138-17.228-11.53-28.006c4.606-10.777,17.236-15.711,28.21-11.021c10.974,4.69,16.137,17.229,11.531,28.006
					C294.149-484.595,281.519-479.661,270.545-484.351L270.545-484.351z"/>
				<path id="path3235" inkscape:connector-curvature="0" fill="#001189" d="M187.335-413.697
					c-13.239-5.657-19.467-20.784-13.911-33.784c5.556-13.002,20.792-18.954,34.031-13.296s19.467,20.784,13.913,33.785
					C215.811-413.991,200.575-408.037,187.335-413.697z"/>
				<path id="path3237" inkscape:connector-curvature="0" fill="#001189" d="M232.693-512.672
					c-10.631-4.543-15.691-16.558-11.299-26.834c4.393-10.276,16.572-14.923,27.204-10.38c10.632,4.545,15.69,16.559,11.298,26.835
					C255.505-512.774,243.326-508.128,232.693-512.672L232.693-512.672z"/>
				<path id="path3239" inkscape:connector-curvature="0" fill="#001189" d="M198.237-478.728
					c-10.975-4.689-16.196-17.091-11.662-27.698c4.532-10.606,17.104-15.402,28.078-10.713
					c10.975,4.691,16.195,17.091,11.663,27.697C221.783-478.834,209.211-474.038,198.237-478.728L198.237-478.728z"/>
				<path id="path3241" inkscape:connector-curvature="0" fill="#001189" d="M153.314-457.027
					c-10.976-4.69-16.197-17.091-11.663-27.697c4.533-10.607,17.106-15.404,28.079-10.712c10.975,4.689,16.197,17.09,11.663,27.697
					C176.859-457.134,164.29-452.338,153.314-457.027L153.314-457.027z"/>
				<path id="path3243" inkscape:connector-curvature="0" fill="#001189" d="M117.412-479.908
					c-9.203-3.932-13.525-14.473-9.649-23.539c3.875-9.068,14.479-13.228,23.683-9.295c9.204,3.934,13.526,14.472,9.649,23.541
					C137.219-480.136,126.616-475.974,117.412-479.908z"/>
				<path id="path3245" inkscape:connector-curvature="0" fill="#001189" d="M159.314-503.168
					c-9.277-3.965-13.656-14.53-9.782-23.597c3.875-9.068,14.537-13.204,23.815-9.238c9.278,3.965,13.657,14.529,9.782,23.597
					C179.254-503.34,168.591-499.203,159.314-503.168z"/>
				<path id="path3247" inkscape:connector-curvature="0" fill="#001189" d="M192.435-531.413
					c-9.278-3.965-13.657-14.529-9.783-23.597c3.876-9.067,14.538-13.202,23.815-9.238c9.278,3.965,13.656,14.53,9.781,23.596
					C212.373-531.584,201.711-527.448,192.435-531.413L192.435-531.413z"/>
				<path id="path3249" inkscape:connector-curvature="0" fill="#001189" d="M160.46-542.923
					c-6.984-2.985-10.265-10.975-7.327-17.847c2.937-6.873,10.98-10.023,17.963-7.039c6.984,2.985,10.264,10.976,7.327,17.847
					C175.485-543.089,167.442-539.938,160.46-542.923L160.46-542.923z"/>
				<path id="path3251" inkscape:connector-curvature="0" fill="#001189" d="M126.617-516.337
					c-6.984-2.985-10.265-10.975-7.328-17.847c2.937-6.873,10.98-10.023,17.963-7.039c6.984,2.985,10.265,10.975,7.327,17.847
					C141.642-516.503,133.6-513.352,126.617-516.337z"/>
				<path id="path3253" inkscape:connector-curvature="0" fill="#001189" d="M131.574-545.224c-5.701-2.435-8.378-8.957-5.98-14.566
					c2.397-5.61,8.962-8.182,14.66-5.745c5.7,2.436,8.378,8.958,5.981,14.566C143.838-545.359,137.274-542.788,131.574-545.224z"/>
				<path id="path3255" inkscape:connector-curvature="0" fill="#001189" d="M105.303-542.221c-5.334-2.279-7.84-8.382-5.598-13.631
					c2.244-5.249,8.387-7.656,13.722-5.377c5.333,2.28,7.839,8.383,5.596,13.631C116.781-542.349,110.637-539.942,105.303-542.221z"
					/>
				<path id="path3257" inkscape:connector-curvature="0" fill="#001189" d="M94.564-521.035c-5.298-2.266-7.786-8.327-5.558-13.539
					c2.229-5.213,8.328-7.603,13.626-5.339c5.298,2.263,7.786,8.326,5.559,13.539C105.962-521.163,99.861-518.772,94.564-521.035z"
					/>
				<path id="path3259" inkscape:connector-curvature="0" fill="#001189" d="M81.294-492.25
					c-6.983-2.984-10.263-10.975-7.327-17.846c2.938-6.872,10.98-10.023,17.964-7.039c6.984,2.985,10.263,10.975,7.326,17.848
					C96.32-492.416,88.278-489.266,81.294-492.25z"/>
				<path id="path3261" inkscape:connector-curvature="0" fill="#001189" d="M62.15-518.721c-5.297-2.264-7.786-8.326-5.558-13.538
					c2.228-5.213,8.329-7.604,13.626-5.339c5.298,2.264,7.787,8.325,5.559,13.539C73.549-518.848,67.448-516.457,62.15-518.721z"/>
				<path id="path3263" inkscape:connector-curvature="0" fill="#001189" d="M52.179-495.717c-5.633-2.407-8.278-8.852-5.909-14.394
					c2.369-5.541,8.855-8.083,14.488-5.675c5.632,2.406,8.277,8.85,5.909,14.392C64.297-495.852,57.81-493.309,52.179-495.717z"/>
				<path id="path3265" inkscape:connector-curvature="0" fill="#001189" d="M78.229-537.291c-3.996-1.707-5.873-6.28-4.193-10.213
					c1.68-3.93,6.282-5.735,10.279-4.027c3.996,1.707,5.873,6.28,4.193,10.213C86.827-537.386,82.225-535.582,78.229-537.291z"/>
				<path id="path3267" inkscape:connector-curvature="0" fill="#001189" d="M41.413-515.94c-3.704-1.583-5.443-5.82-3.885-9.465
					c1.557-3.643,5.822-5.314,9.525-3.732c3.704,1.583,5.444,5.82,3.887,9.465C49.382-516.028,45.117-514.357,41.413-515.94z"/>
				<path id="path3269" inkscape:connector-curvature="0" fill="#001189" d="M25.813-495.406c-4.889-2.089-7.185-7.682-5.129-12.493
					c2.055-4.81,7.685-7.017,12.574-4.927c4.888,2.089,7.184,7.683,5.13,12.493C36.331-495.522,30.702-493.316,25.813-495.406z"/>
				<path id="path3271" inkscape:connector-curvature="0" fill="#001189" d="M8.872-485.215c-3.444-1.472-5.061-5.411-3.612-8.8
					c1.448-3.388,5.413-4.941,8.856-3.47c3.443,1.472,5.06,5.411,3.612,8.8C16.281-485.297,12.315-483.744,8.872-485.215z"/>
			</g>
		</g>
	</g>
	<g id="g3267">
		<path id="rect3275" inkscape:connector-curvature="0" sodipodi:nodetypes="ccccccscccccccccccc" fill="#B60024" d="
			M651.628,282.767v43.395v27.42v43.396v40.5h0.503c1.62,14.918,9.85,30.941,29.032,30.941h83.292V427.29h-69.81v-30.313h66.036
			v-43.396h-66.036v-27.42h71.192v-43.395h-71.192H651.628z"/>
		<path id="path3289" inkscape:connector-curvature="0" sodipodi:nodetypes="cccccccccccc" fill="#B60024" d="M800.939,444.286
			c3.316,15.021,11.042,24.164,25.817,23.906h18.646v-73.15h59.763v-40.16h-59.763v-32.033h66.934V282.21H799.505L800.939,444.286z"
			/>
		<path id="rect3291" inkscape:connector-curvature="0" sodipodi:nodetypes="cssccccc" fill="#B60024" d="M945.329,282.64v144.9
			c0,19.826,2.022,39.748,26.974,39.748h73.903V427.54h-58.363v-144.9H945.329z"/>
	</g>
</g>
</svg>
