<?xml version="1.0" encoding="UTF-8" standalone="no"?>
<!-- Created with Inkscape (http://www.inkscape.org/) -->

<svg
   xmlns:dc="http://purl.org/dc/elements/1.1/"
   xmlns:cc="http://creativecommons.org/ns#"
   xmlns:rdf="http://www.w3.org/1999/02/22-rdf-syntax-ns#"
   xmlns:svg="http://www.w3.org/2000/svg"
   xmlns="http://www.w3.org/2000/svg"
   xmlns:sodipodi="http://sodipodi.sourceforge.net/DTD/sodipodi-0.dtd"
   xmlns:inkscape="http://www.inkscape.org/namespaces/inkscape"
   id="svg2985"
   version="1.1"
   inkscape:version="0.48.2 r9819"
   width="1000"
   height="278.83759"
   xml:space="preserve"
   sodipodi:docname="A.svg"><metadata
     id="metadata2991"><rdf:RDF><cc:Work
         rdf:about=""><dc:format>image/svg+xml</dc:format><dc:type
           rdf:resource="http://purl.org/dc/dcmitype/StillImage" /><dc:title></dc:title></cc:Work></rdf:RDF></metadata><defs
     id="defs2989"><clipPath
       clipPathUnits="userSpaceOnUse"
       id="clipPath3041"><path
         d="m 294,244 792,0 0,792 -792,0 0,-792 z"
         id="path3043"
         inkscape:connector-curvature="0" /></clipPath><clipPath
       clipPathUnits="userSpaceOnUse"
       id="clipPath3831"><path
         inkscape:connector-curvature="0"
         d="M 0,0 612,0 612,792 0,792 0,0 z"
         id="path3833" /></clipPath><clipPath
       id="clipPath5003"
       clipPathUnits="userSpaceOnUse"><path
         inkscape:connector-curvature="0"
         id="path5005"
         d="m 45,11.079 98.748,0 0,27.464 -98.748,0 0,-27.464 z" /></clipPath></defs><sodipodi:namedview
     pagecolor="#ffffff"
     bordercolor="#666666"
     borderopacity="1"
     objecttolerance="10"
     gridtolerance="10"
     guidetolerance="10"
     inkscape:pageopacity="0"
     inkscape:pageshadow="2"
     inkscape:window-width="1076"
     inkscape:window-height="1027"
     id="namedview2987"
     showgrid="false"
     fit-margin-left="0.5"
     fit-margin-bottom="0.5"
     fit-margin-top="0.5"
     fit-margin-right="0.5"
     inkscape:zoom="0.23872565"
     inkscape:cx="942.00647"
     inkscape:cy="-459.70842"
     inkscape:window-x="835"
     inkscape:window-y="-11"
     inkscape:window-maximized="0"
     inkscape:current-layer="g5001" /><g
     id="g2993"
     inkscape:groupmode="layer"
     inkscape:label="Maps API for JavaScript Public v2.5.3 Developer's Guide"
     transform="matrix(1.25,0,0,-1.25,-325.62367,1013.9159)"><g
       id="g2995"
       transform="matrix(1,0,0,-1,0,790.866)"><g
         id="g2997"
         transform="translate(56.692,96.377)" /><g
         id="g3007"
         transform="translate(56.692,96.377)" /><g
         id="g3017"
         transform="translate(56.692,96.377)" /><g
         id="g3027"
         transform="translate(56.692,96.377)" /><g
         id="g3047"
         transform="translate(56.692,96.377)" /><g
         id="g3049"
         transform="translate(0,720.24)"><g
           id="g3051" /></g><g
         id="g3053"
         transform="translate(56.692,96.377)" /><g
         transform="matrix(8.0933285,0,0,-8.0933285,-103.30039,292.07418)"
         id="g4999"><g
           clip-path="url(#clipPath5003)"
           id="g5001"><g
             transform="matrix(0.99999234,0,0,0.99999234,58.570296,28.348268)"
             id="g5075"><path
               id="path5077"
               style="fill:#faba0e;fill-opacity:1;fill-rule:nonzero;stroke:none"
               d="M 0.94742378,-9.7913022 8.294,2.659 C 8.173,3.003 8.037,3.34 7.884,3.671 L -5.1210604,9.1614238 -13.443,-2.747 c 0.03,-0.193 0.064,-0.386 0.102,-0.577 z"
               inkscape:connector-curvature="0"
               sodipodi:nodetypes="ccccccc" /></g><g
             transform="matrix(0.99999234,0,0,0.99999234,91.655842,17.067454)"
             id="g5007"><path
               id="path5009"
               style="fill:#203562;fill-opacity:1;fill-rule:nonzero;stroke:none"
               d="M 0,0 -3.021,0 C -3.033,0 -3.042,0.003 -3.05,0.013 L -5.654,3.188 -8.258,0.013 C -8.265,0.003 -8.277,0 -8.287,0 l -2.418,0 c -0.017,0 -0.03,0.008 -0.037,0.022 -0.007,0.011 -0.003,0.027 0.006,0.039 l 3.835,4.708 -3.793,4.664 c -0.009,0.013 -0.009,0.029 -0.004,0.043 0.006,0.009 0.02,0.022 0.032,0.022 l 3.023,0 c 0.009,0 0.023,-0.007 0.029,-0.019 l 2.282,-2.828 2.325,2.831 C -3,9.491 -2.989,9.498 -2.978,9.498 l 2.464,0 c 0.014,0 0.029,-0.013 0.034,-0.022 0.007,-0.014 0.004,-0.03 -0.005,-0.043 L -4.082,5.113 0.029,0.061 C 0.039,0.049 0.041,0.033 0.033,0.022 0.027,0.008 0.014,0 0,0"
               inkscape:connector-curvature="0" /></g><g
             transform="matrix(0.99999234,0,0,0.99999234,108.01112,24.892494)"
             id="g5011"><path
               id="path5013"
               style="fill:#203562;fill-opacity:1;fill-rule:nonzero;stroke:none"
               d="m 0,0 c -1.337,0 -2.252,-0.811 -2.515,-2.225 l 4.554,0 0,0.093 C 2.039,-1.003 1.205,0 0,0 M 4.384,-3.672 C 4.379,-3.681 4.366,-3.688 4.351,-3.688 l -6.914,0 c 0.144,-1.609 1.189,-2.527 2.883,-2.527 1.042,0 2.148,0.357 3.712,1.188 0.025,0.014 0.057,-0.01 0.057,-0.039 L 4.084,-7.19 C 4.081,-7.209 4.074,-7.22 4.063,-7.223 2.608,-7.838 1.145,-8.253 0,-8.253 c -2.977,0 -5.139,2.167 -5.139,5.156 0,2.986 2.162,5.156 5.139,5.156 2.715,0 4.461,-1.83 4.461,-4.345 0,-0.407 -0.073,-1.355 -0.077,-1.386"
               inkscape:connector-curvature="0" /></g><g
             transform="matrix(0.99999234,0,0,0.99999234,126.44348,28.526166)"
             id="g5015"><path
               id="path5017"
               style="fill:#203562;fill-opacity:1;fill-rule:nonzero;stroke:none"
               d="m 0,0 c -0.849,0 -1.538,0.679 -1.538,1.514 0,0.858 0.689,1.558 1.538,1.558 0.849,0 1.536,-0.7 1.536,-1.558 C 1.536,0.679 0.849,0 0,0 m -1.244,-11.459 c -0.024,0 -0.039,0.015 -0.039,0.039 l 0,9.421 c 0,0.018 0.013,0.033 0.031,0.037 l 2.499,0 c 0.018,-0.004 0.03,-0.019 0.03,-0.037 l 0,-9.421 c 0,-0.024 -0.016,-0.039 -0.037,-0.039 l -2.484,0 z"
               inkscape:connector-curvature="0" /></g><g
             transform="matrix(0.99999234,0,0,0.99999234,96.227507,18.485543)"
             id="g5019"><path
               id="path5021"
               style="fill:#203562;fill-opacity:1;fill-rule:nonzero;stroke:none"
               d="m 0,0 c -0.454,0 -0.914,0.063 -1.442,0.204 l 0.003,6.046 c 0.62,0.197 1.161,0.289 1.695,0.289 1.731,0 2.893,-1.275 2.893,-3.174 C 3.149,1.32 1.913,0 0,0 m 0.677,8.463 c -0.705,0 -1.415,-0.126 -2.161,-0.383 l -2.487,0 c -0.021,0 -0.036,-0.019 -0.036,-0.038 l 0,-15.448 c 0.752,0.1 1.667,0.368 2.567,1.005 l -0.002,4.699 c 0.61,-0.088 1.117,-0.144 1.605,-0.144 3.405,0 5.608,2.039 5.608,5.196 0,3.01 -2.097,5.113 -5.094,5.113"
               inkscape:connector-curvature="0" /></g><g
             transform="matrix(0.99999234,0,0,0.99999234,120.65292,19.267337)"
             id="g5023"><path
               id="path5025"
               style="fill:#203562;fill-opacity:1;fill-rule:nonzero;stroke:none"
               d="m 0,0 c -0.78,-0.407 -1.473,-0.602 -2.126,-0.602 -1.542,0 -2.466,1.088 -2.466,2.913 0,2.108 1.179,3.474 3.003,3.474 0.503,0 0.994,-0.122 1.589,-0.391 L 0,0 z M 0,12.284 0,7.353 c -0.73,0.211 -1.372,0.307 -2.019,0.307 -2.964,0 -5.199,-2.233 -5.199,-5.2 0,-2.948 1.973,-5.088 4.686,-5.088 0.94,0 1.823,0.235 2.857,0.767 L 0.321,-2.714 c 0.683,0.132 1.467,0.406 2.242,0.955 l 0,15.052 C 1.804,13.193 0.903,12.938 0,12.284"
               inkscape:connector-curvature="0" /></g><g
             transform="matrix(0.99999234,0,0,0.99999234,136.3726,19.287037)"
             id="g5027"><path
               id="path5029"
               style="fill:#203562;fill-opacity:1;fill-rule:nonzero;stroke:none"
               d="m 0,0 c -0.754,-0.434 -1.399,-0.644 -1.975,-0.644 -1.651,0 -2.638,1.086 -2.638,2.916 0,2.077 1.163,3.473 2.896,3.473 0.466,0 1.026,-0.177 1.717,-0.542 L 0,0 z m 2.568,7.391 c 0,0.059 -0.051,0.106 -0.109,0.106 L 0.442,7.493 C 0.38,7.493 0.333,7.443 0.333,7.384 l 0,-0.341 -0.051,0 c -0.931,0.407 -1.729,0.598 -2.51,0.598 -2.793,0 -4.984,-2.318 -4.984,-5.284 0,-2.998 1.96,-5.005 4.877,-5.005 0.777,0 1.78,0.052 2.714,1.13 l 0,-1.212 c 0.663,0.14 1.443,0.42 2.185,0.954 l 0.004,9.167 z"
               inkscape:connector-curvature="0" /></g><g
             transform="matrix(0.99999234,0,0,0.99999234,74.047377,19.455736)"
             id="g5031"><path
               id="path5033"
               style="fill:#203562;fill-opacity:1;fill-rule:nonzero;stroke:none"
               d="M 0,0 6.256,0.002 C 6.162,-0.697 5.925,-1.517 5.383,-2.35 l -5.37,0 -1.067,0 -0.072,0 c -0.796,0 -1.452,0.617 -1.53,1.398 -0.002,0.011 -0.008,0.022 -0.01,0.031 l 0,6.41 0,5.928 c 0.002,0.009 0.008,0.02 0.01,0.03 0.078,0.783 0.734,1.402 1.53,1.402 0.027,0 0.049,-0.005 0.072,-0.005 l 7.296,0.002 C 6.147,12.148 5.911,11.309 5.369,10.478 l -5.369,0 0,-3.357 5.314,0 c 0.023,0 0.039,-0.018 0.039,-0.037 l 0,-2.33 C 5.353,4.736 5.337,4.718 5.314,4.718 L 0,4.718 0,0.002 0,0 z"
               inkscape:connector-curvature="0" /></g><g
             transform="matrix(0.99999234,0,0,0.99999234,91.656642,17.068254)"
             id="g5035"><path
               id="path5037"
               style="fill:#203562;fill-opacity:1;fill-rule:nonzero;stroke:none"
               d="m 0,0 -3.021,0 c -0.012,0 -0.022,0.003 -0.03,0.012 L -5.653,3.188 -8.258,0.012 C -8.265,0.003 -8.278,0 -8.288,0 l -2.419,0 c -0.015,0 -0.027,0.007 -0.035,0.022 -0.007,0.011 -0.004,0.027 0.005,0.039 l 3.835,4.707 -3.791,4.665 c -0.011,0.014 -0.011,0.028 -0.006,0.042 0.006,0.01 0.02,0.023 0.034,0.023 l 3.021,0 c 0.009,0 0.023,-0.007 0.029,-0.019 l 2.283,-2.829 2.324,2.832 c 0.007,0.009 0.018,0.016 0.03,0.016 l 2.463,0 c 0.015,0 0.029,-0.013 0.035,-0.023 0.006,-0.014 0.004,-0.03 -0.006,-0.042 L -4.083,5.113 0.028,0.061 C 0.039,0.049 0.041,0.033 0.033,0.022 0.026,0.007 0.014,0 0,0"
               inkscape:connector-curvature="0" /></g><g
             transform="matrix(0.99999234,0,0,0.99999234,108.01112,24.893294)"
             id="g5039"><path
               id="path5041"
               style="fill:#203562;fill-opacity:1;fill-rule:nonzero;stroke:none"
               d="m 0,0 c -1.337,0 -2.253,-0.811 -2.515,-2.226 l 4.554,0 0,0.093 C 2.039,-1.003 1.206,0 0,0 M 4.384,-3.672 C 4.379,-3.681 4.366,-3.688 4.351,-3.688 l -6.912,0 c 0.141,-1.609 1.187,-2.527 2.881,-2.527 1.042,0 2.148,0.356 3.713,1.187 0.025,0.015 0.057,-0.009 0.057,-0.039 L 4.085,-7.19 C 4.082,-7.209 4.075,-7.22 4.063,-7.223 2.609,-7.838 1.146,-8.254 0,-8.254 c -2.978,0 -5.137,2.167 -5.137,5.157 0,2.985 2.159,5.155 5.137,5.155 2.716,0 4.461,-1.828 4.461,-4.344 0,-0.407 -0.073,-1.354 -0.077,-1.386"
               inkscape:connector-curvature="0" /></g><g
             transform="matrix(0.99999234,0,0,0.99999234,126.44428,28.526166)"
             id="g5043"><path
               id="path5045"
               style="fill:#203562;fill-opacity:1;fill-rule:nonzero;stroke:none"
               d="m 0,0 c -0.849,0 -1.539,0.68 -1.539,1.515 0,0.858 0.69,1.558 1.539,1.558 0.848,0 1.536,-0.7 1.536,-1.558 C 1.536,0.68 0.848,0 0,0 m -1.244,-11.458 c -0.024,0 -0.039,0.014 -0.039,0.038 l 0,9.422 c 0,0.018 0.012,0.033 0.03,0.036 l 2.499,0 C 1.264,-1.965 1.277,-1.98 1.277,-1.998 l 0,-9.422 c 0,-0.024 -0.016,-0.038 -0.037,-0.038 l -2.484,0 z"
               inkscape:connector-curvature="0" /></g><g
             transform="matrix(0.99999234,0,0,0.99999234,96.227507,18.486343)"
             id="g5047"><path
               id="path5049"
               style="fill:#203562;fill-opacity:1;fill-rule:nonzero;stroke:none"
               d="m 0,0 c -0.453,0 -0.913,0.062 -1.442,0.204 l 0.004,6.045 c 0.62,0.199 1.161,0.29 1.695,0.29 1.73,0 2.893,-1.276 2.893,-3.175 C 3.15,1.32 1.914,0 0,0 m 0.677,8.464 c -0.705,0 -1.414,-0.127 -2.161,-0.383 l -2.486,0 c -0.022,0 -0.036,-0.019 -0.036,-0.039 l 0,-15.448 c 0.751,0.1 1.667,0.369 2.566,1.005 l -0.002,4.698 c 0.61,-0.088 1.117,-0.144 1.605,-0.144 3.405,0 5.608,2.04 5.608,5.196 0,3.013 -2.096,5.115 -5.094,5.115"
               inkscape:connector-curvature="0" /></g><g
             transform="matrix(0.99999234,0,0,0.99999234,120.65292,19.267337)"
             id="g5051"><path
               id="path5053"
               style="fill:#203562;fill-opacity:1;fill-rule:nonzero;stroke:none"
               d="m 0,0 c -0.778,-0.406 -1.472,-0.602 -2.126,-0.602 -1.542,0 -2.466,1.089 -2.466,2.914 0,2.107 1.18,3.474 3.004,3.474 0.503,0 0.994,-0.121 1.588,-0.391 L 0,0 z M 0,12.286 0,7.354 c -0.729,0.212 -1.371,0.306 -2.019,0.306 -2.963,0 -5.198,-2.232 -5.198,-5.199 0,-2.948 1.972,-5.089 4.686,-5.089 0.939,0 1.822,0.235 2.856,0.767 L 0.321,-2.713 c 0.684,0.132 1.468,0.406 2.243,0.954 l 0,15.054 C 1.805,13.194 0.904,12.939 0,12.286"
               inkscape:connector-curvature="0" /></g><g
             transform="matrix(0.99999234,0,0,0.99999234,136.3726,19.287937)"
             id="g5055"><path
               id="path5057"
               style="fill:#203562;fill-opacity:1;fill-rule:nonzero;stroke:none"
               d="m 0,0 c -0.753,-0.434 -1.399,-0.645 -1.975,-0.645 -1.651,0 -2.638,1.087 -2.638,2.916 0,2.077 1.164,3.474 2.896,3.474 0.466,0 1.026,-0.176 1.717,-0.543 L 0,0 z m 2.568,7.391 c 0,0.058 -0.051,0.106 -0.109,0.106 L 0.442,7.493 c -0.061,0 -0.109,-0.05 -0.109,-0.108 l 0,-0.343 -0.051,0 c -0.931,0.407 -1.728,0.598 -2.51,0.598 -2.793,0 -4.984,-2.317 -4.984,-5.284 0,-2.997 1.96,-5.005 4.877,-5.005 0.779,0 1.78,0.052 2.715,1.131 l 0,-1.213 c 0.662,0.14 1.443,0.421 2.185,0.955 l 0.003,9.167 z"
               inkscape:connector-curvature="0" /></g><g
             transform="matrix(0.99999234,0,0,0.99999234,74.048277,19.456636)"
             id="g5059"><path
               id="path5061"
               style="fill:#203562;fill-opacity:1;fill-rule:nonzero;stroke:none"
               d="M 0,0 6.255,0.001 C 6.16,-0.697 5.924,-1.517 5.382,-2.351 l -5.369,0 -1.067,0 -0.073,0 c -0.796,0 -1.451,0.617 -1.53,1.399 -0.002,0.01 -0.007,0.021 -0.009,0.031 l 0,6.409 0,5.929 c 0.002,0.009 0.007,0.021 0.009,0.03 0.079,0.783 0.734,1.402 1.53,1.402 0.026,0 0.05,-0.005 0.073,-0.005 l 7.295,0.003 C 6.146,12.148 5.91,11.309 5.368,10.479 l -5.368,0 0,-3.358 5.314,0 c 0.023,0 0.039,-0.018 0.039,-0.036 l 0,-2.331 C 5.353,4.736 5.337,4.718 5.314,4.718 L 0,4.718 0,0.001 0,0 z"
               inkscape:connector-curvature="0" /></g><g
             transform="matrix(0.99999234,0,0,0.99999234,141.60596,26.930779)"
             id="g5063"><path
               id="path5065"
               style="fill:#203562;fill-opacity:1;fill-rule:nonzero;stroke:none"
               d="m 0,0 0.289,0 c 0.325,0 0.478,0.091 0.478,0.315 0,0.233 -0.163,0.329 -0.499,0.329 L 0,0.644 0,0 z m 0.35,0.923 c 0.579,0 0.868,-0.197 0.868,-0.558 0,-0.299 -0.162,-0.502 -0.457,-0.569 l 0.457,-0.928 -0.492,0 -0.406,0.857 -0.32,0 0,-0.857 -0.441,0 0,2.055 0.791,0 z m -1.131,0.056 c -0.305,-0.31 -0.472,-0.706 -0.472,-1.116 0,-0.411 0.157,-0.797 0.452,-1.096 0.298,-0.3 0.689,-0.467 1.085,-0.467 0.432,0 0.822,0.157 1.132,0.456 0.294,0.284 0.456,0.67 0.456,1.081 0,0.442 -0.152,0.823 -0.446,1.122 -0.305,0.304 -0.685,0.467 -1.116,0.467 -0.426,0 -0.797,-0.152 -1.091,-0.447 m 2.4,0.168 c 0.34,-0.346 0.523,-0.792 0.523,-1.284 0,-0.508 -0.188,-0.959 -0.538,-1.299 -0.361,-0.351 -0.823,-0.538 -1.3,-0.538 -0.487,0 -0.949,0.198 -1.298,0.553 -0.346,0.35 -0.533,0.802 -0.533,1.284 0,0.487 0.197,0.954 0.553,1.309 0.345,0.345 0.781,0.523 1.278,0.523 0.503,0 0.959,-0.188 1.315,-0.548"
               inkscape:connector-curvature="0" /></g><g
             transform="matrix(0.99999234,0,0,0.99999234,58.159199,29.901056)"
             id="g5067"><path
               id="path5069"
               style="fill:#203561;fill-opacity:1;fill-rule:nonzero;stroke:none"
               d="M 0,0 -0.453,1.282 -4.296,6.418 -3.606,6.59 3.021,0.862 6.92,1.978 C 7.378,2.095 7.897,2.121 8.295,2.118 7.069,4.762 4.826,6.931 1.866,7.987 -3.988,10.072 -10.424,7.014 -12.506,1.158 -13.15,-0.654 -13.302,-2.522 -13.032,-4.3 l 9.34,3.245 L 0,0 z"
               inkscape:connector-curvature="0" /></g><g
             transform="matrix(0.99999234,0,0,0.99999234,66.864432,31.007047)"
             id="g5071"><path
               id="path5073"
               style="fill:#203561;fill-opacity:1;fill-rule:nonzero;stroke:none"
               d="m 0,0 c -0.343,-0.22 -0.844,-0.514 -1.344,-0.674 l -3.909,-1.114 -2.607,-8.371 -0.677,-0.221 0.552,6.394 -0.309,1.327 -3.661,-1.046 -9.681,-2.278 c 0.769,-3.724 3.405,-6.969 7.249,-8.339 5.855,-2.086 12.287,0.974 14.371,6.826 C 0.881,-4.974 0.823,-2.343 0,0"
               inkscape:connector-curvature="0" /></g><g
             transform="matrix(0.99999234,0,0,0.99999234,66.227037,16.871356)"
             id="g5079"><path
               id="path5081"
               style="fill:#203561;fill-opacity:1;fill-rule:nonzero;stroke:none"
               d="m 0,0 c -0.618,0 -1.001,0.483 -1.001,1.074 0,0.633 0.439,1.075 1.001,1.075 0.557,0 0.994,-0.442 0.994,-1.075 C 0.994,0.44 0.557,0 0,0 m 0,2.27 c -0.633,0 -1.174,-0.476 -1.174,-1.196 0,-0.679 0.488,-1.191 1.174,-1.191 0.626,0 1.168,0.473 1.168,1.191 C 1.168,1.794 0.626,2.27 0,2.27"
               inkscape:connector-curvature="0" /></g><g
             transform="matrix(0.99999234,0,0,0.99999234,65.945939,18.043847)"
             id="g5083"><path
               id="path5085"
               style="fill:#203561;fill-opacity:1;fill-rule:nonzero;stroke:none"
               d="m 0,0 0,0.435 0.295,0 C 0.443,0.435 0.619,0.414 0.619,0.232 0.619,0.018 0.456,0 0.273,0 L 0,0 z M 0.836,0.203 C 0.836,0.49 0.661,0.61 0.32,0.61 l -0.536,0 0,-1.413 0.232,0 0,0.604 0.218,0 0.366,-0.604 0.262,0 -0.395,0.62 c 0.213,0.026 0.369,0.13 0.369,0.386"
               inkscape:connector-curvature="0" /></g></g></g></g></g></svg>