<?xml version="1.0" encoding="utf-8"?>
<!-- Generator: Adobe Illustrator 15.0.0, SVG Export Plug-In . SVG Version: 6.00 Build 0)  -->
<!DOCTYPE svg PUBLIC "-//W3C//DTD SVG 1.1//EN" "http://www.w3.org/Graphics/SVG/1.1/DTD/svg11.dtd">
<svg version="1.1" id="Layer_1" xmlns="http://www.w3.org/2000/svg" xmlns:xlink="http://www.w3.org/1999/xlink" x="0px" y="0px"
	 width="3588.68px" height="1317.54px" viewBox="114.087 164.571 3588.68 1317.54"
	 enable-background="new 114.087 164.571 3588.68 1317.54" xml:space="preserve">
<g>
	<path d="M3647.441,819.692c27.663,20.382,55.326,34.944,55.326,65.517c0,8.733-11.648,18.93-37.854,18.93
		c-20.381,0-42.221-5.823-52.411-20.381c-8.739-10.191,2.909-24.749-2.915-36.396c-5.818-8.734-17.467-4.367-26.2-8.734
		c-10.196-5.824-10.196-10.19-17.472-23.291c-7.282-16.015-32.03-43.678-61.146-72.793c-24.748-24.748-50.954-37.854-62.603-36.396
		c-8.733,1.458-11.647,1.458-18.929,1.458c-20.377,0-39.307,20.381-68.427,32.035c-20.382,8.733-32.029,14.557-46.588,16.015
		l-4.371,5.824l27.662-1.463c24.749,0,59.693-4.366,84.441-4.366c26.206,0,39.312,23.291,49.502,48.039
		c20.382,49.502,49.503,122.295,85.894,181.987c17.473,27.658,32.035,46.588,32.035,81.527c0,10.19-1.457,24.748-16.015,24.748
		c-20.382,0-71.342-20.382-71.342-43.678c0-17.467,13.106-24.749,13.106-42.215c0-10.196-16.016-8.739-20.382-18.931
		c-13.105-53.863-27.663-106.274-58.235-138.31c-16.016-16.015-17.467-23.291-32.03-23.291c-8.733,0-16.015,1.457-23.291,4.372
		c-42.221,16.015-97.541,61.145-165.973,82.983c-26.2,8.733-30.572-7.281-58.23-1.457h1.457
		c-21.839,4.367-39.306,17.467-68.426,24.748c-42.221,11.648-113.562,17.468-170.34,10.191
		c-40.769-5.818-93.181-13.101-116.472-13.101c-17.467,49.497-53.863,115.014-109.189,141.22
		c-29.115,13.101-37.854,30.572-29.115,64.055c10.191,40.769,46.588,71.341,65.512,104.822
		c17.473,30.572,45.13,77.165,75.702,93.181c30.578,16.015,48.045,37.854,48.045,56.777c0,8.739-4.372,14.558-13.105,14.558h-59.692
		c-8.733,0-13.106-5.818-16.016-8.733c-8.733-16.015-2.909-30.572-13.105-43.678c-8.733-10.19-14.558-7.281-24.748-16.015
		c-17.467-17.467-4.372-27.658-17.467-49.496c-37.859-59.698-53.869-74.251-85.898-116.472
		c-17.467-23.291-39.307-33.487-39.307-64.06c0-36.396,36.397-42.215,34.939-78.611c-23.285,17.467-50.948,30.572-93.175,36.396
		c-5.824,1.457-20.382,11.643-26.2,18.924c-14.558,14.558-20.382,29.12-21.839,50.954c-4.372,49.502-14.558,98.999-8.733,148.501
		c8.733,32.03,13.1,42.221,39.306,59.693c16.015,10.19,34.944,26.205,37.854,49.502c0,5.818-1.457,13.1-10.19,13.1h-64.06
		c-5.824,0-11.648-4.366-13.105-8.733c-7.281-13.1-2.909-21.839-5.824-36.396c-5.818-30.573-39.306-27.658-39.306-58.236
		c0-8.733,5.824-20.376,5.824-39.306c1.457-42.215,14.557-109.189,1.457-190.716c-5.824-48.045,43.678-49.502,68.426-90.271
		c16.016-23.291,10.196-13.101,20.382-30.573c8.733-17.467,7.281-30.572,5.824-42.215c0-13.105-13.105-42.221-4.372-101.913
		c2.915-26.206,16.015-52.412,33.487-75.703c0-1.457,0-4.372-5.824-4.372c-24.748,1.458-24.748-4.366-42.221-4.366
		c-16.015,0-29.12,13.101-32.029,20.376c-8.733-2.909-11.648-13.1-11.648-17.467c0-8.733,1.463-17.467,10.196-26.206
		c2.909-2.909,0-5.818-4.372-5.818c-20.382,0-39.306,24.748-43.678,42.216c-11.644-1.458-13.101-17.468-17.467-17.468
		c-5.824,0-8.733,8.734-8.733,16.016c0,58.235,94.626,71.341,94.626,147.043c0,88.809-106.274,69.878-106.274,101.914
		c0,5.818,4.372,11.643,13.105,16.015c-2.909,8.733-13.105,11.643-23.291,11.643c-23.291,0-40.769-17.467-40.769-40.764
		c0-48.045,64.06-49.502,64.06-85.898c0-17.467-10.19-23.291-20.382-30.572c-61.145-43.678-96.089-87.351-96.089-158.687
		c0-77.16,53.868-136.853,123.752-136.853c101.914,0,104.823,116.466,196.54,126.662c34.945-23.297,75.703-37.859,115.02-37.859
		c59.692,0,85.893,16.021,149.953,16.021c24.748,0,68.426-7.282,119.38-42.221c18.925-13.105,27.663-16.016,45.13-30.573
		c39.306-34.944,77.16-101.913,77.16-149.952v2.909c0-16.015-2.909-24.748-10.191-24.748c-21.839,0-40.769,20.376-62.607,40.763
		c-13.1,14.558,7.281,20.382-23.291,37.854c-10.19,5.824-23.291-4.367-34.938-4.367c-24.754,0-34.945-29.12-34.945-53.863
		c0-13.105,10.191-16.021,16.016-27.663c13.105-24.748,11.647-33.487,23.291-58.235c7.281-16.016,20.381-27.663,18.929-39.306
		c0-4.372-2.914-7.282-2.914-11.648c0-24.748,32.035-40.769,32.035-65.518c0-13.105-16.016-20.381-18.93-30.572
		c-2.909-10.19-1.457-13.105-1.457-13.105c1.457-1.457,2.909-2.909,4.372-2.909c13.1,0,17.467,13.105,30.572,20.382
		c1.457-16.021-4.372-20.382-4.372-32.035c0-5.819-1.457-16.016,5.824-16.016c8.733,0,7.281,10.196,14.558,16.016
		c8.733,7.281,17.467,5.824,27.663,13.105c13.1,8.733,20.376,21.839,24.748,23.291c13.105,1.457,16.015-13.105,10.19-23.291
		c14.558-1.457,29.12,10.19,48.045,10.19c30.572,0,39.306,8.739,45.13,13.105c18.925,16.016,23.291,29.121,43.678,29.121
		c10.191,0,16.016-8.733,18.925-13.105c14.558,10.195,16.015,37.859,0,61.149c5.824,18.925,33.487,20.377,46.587,30.573
		c13.106,8.733,10.196,13.1,20.382,18.924c7.281,4.372,13.105,2.915,18.93,0c5.819,24.754-16.015,48.045-42.221,50.954
		c1.458,32.035,34.944,52.411,50.954,61.15c-8.733,20.376-24.748,26.2-39.306,30.572c4.366,20.376,26.2,49.497,16.015,75.702
		c-10.196-4.372-24.754,0-24.754,14.558c0,16.016,20.382,24.749-1.457,36.396c-10.19,5.819-11.643,20.377,5.824,33.482
		c23.291-5.824,46.588-5.824,72.793-5.824c16.016,0,37.854-4.367,52.411-4.367c27.663,0,43.679,10.191,64.055,32.03
		C3549.899,723.609,3595.029,780.387,3647.441,819.692"/>
	<path fill="#747172" d="M2300.764,674.106c10.19,0,30.572-59.693,71.335-59.693c11.648,0,14.558,4.367,14.558,8.733
		c0,8.733-13.105,16.016-13.105,26.206c0,1.457,1.463,4.366,4.372,4.366c10.191,0,17.467-21.839,58.235-21.839
		c11.644,0,20.382,1.458,30.573,4.372c4.372,1.458,13.105,5.824,10.19-7.281c-10.19-27.663-40.764-53.863-84.441-53.863
		s-88.808,39.306-94.632,85.894C2296.392,668.282,2296.392,674.106,2300.764,674.106 M3053.448,299.944
		c-11.647-4.366-13.105-11.643-10.196-26.2c2.915-16.015,2.915-21.839-4.366-23.291c-5.824-1.463-14.558,1.457-23.291,10.191
		c-7.287,10.19-18.93,21.839-23.297,32.029c-4.366,13.105,11.648,11.648,1.463,32.035c-18.93,34.939-23.296,42.216-32.035,65.518
		c-8.733,24.748-14.558,29.12-18.924,37.854c-5.824,7.281,7.281,8.733,21.839,4.366c16.015-5.818,16.015,13.106,10.19,24.754
		c-4.372,8.733-1.457,13.101,11.648,2.909c11.643-8.733-5.824-16.015-1.463-45.13c4.372-26.205,10.196-40.763,26.206-66.969
		c13.105-23.291,24.748-39.312,49.502-30.572C3070.914,321.783,3066.548,305.768,3053.448,299.944 M3558.632,1070.101
		c4.372,0,5.824-5.824,5.824-11.644c0-13.104-7.281-32.035-17.467-39.311c-2.909,18.93-11.647,32.035-11.647,39.311
		C3535.342,1065.734,3552.814,1070.101,3558.632,1070.101 M3670.737,888.119c7.281,0,17.467-2.915,17.467-8.739
		c0-10.191-16.015-30.572-30.572-34.939C3667.823,864.828,3657.637,888.119,3670.737,888.119 M3172.828,640.619
		c101.908,46.593,96.089,133.938,104.822,112.104c4.367-8.733,17.467-50.949-18.929-93.175
		c-27.663-32.029-39.307-24.748-27.663-50.954c45.135-107.732,72.793-270.796-61.146-329.026
		c-16.015-5.824-27.657-5.824-27.657-2.914c0,2.914,14.552,7.281,32.029,18.929c88.809,59.693,61.146,219.843-20.381,296.997
		C3126.236,618.78,3139.341,624.604,3172.828,640.619 M2821.957,1393.308c7.282,0,2.915-10.196,1.463-16.021
		c-5.824-10.19-17.472-17.467-27.663-23.291c2.909,10.196,4.372,37.854,14.558,37.854h11.643 M2513.319,1393.308
		c7.281,0,1.457-10.196-1.457-16.021c-5.824-10.19-18.93-17.467-29.121-21.839c2.909,10.196,4.372,37.859,16.016,37.859H2513.319
		 M2887.475,778.928c56.783-5.824,65.517-18.93,75.702-61.145c4.372-20.382,18.93-40.769,32.035-53.863
		c8.733-8.739,16.015-16.021,24.748-30.578c2.909-5.818,4.372-10.19,0-8.733c-5.824,4.372-24.748,17.473-33.481,23.291
		c-39.312,27.663-100.456,42.221-125.205,42.221c-52.411,0-96.089-16.015-144.134-16.015
		c-141.214,0-193.625,110.646-186.349,174.701c1.462,10.195,2.914,10.195,5.823,10.195c10.196,0,18.93-37.854,53.869-71.341
		c52.406-49.502,107.732-77.16,187.807-77.16c58.23,0,81.526,18.925,81.526,26.201c0,14.557-24.748,16.015-23.291,30.572
		C2836.521,771.647,2851.078,783.301,2887.475,778.928"/>
	<path fill="#008037" d="M114.087,1432.614H3331.52v49.497H114.087V1432.614z"/>
	<path d="M1830.565,580.959c-13.105-4.367-36.396-10.191-59.693-10.191c-82.983,0-145.591,55.321-145.591,136.853
		c0,77.165,55.326,138.311,142.682,138.311c21.834,0,52.411-5.824,68.427-10.19h1.457V700.339h-43.678v101.914
		c-5.824,1.457-16.016,2.909-26.2,2.909c-56.784,0-94.633-43.673-94.633-96.09c-1.457-52.411,39.307-93.174,98.999-93.174
		c18.93,0,42.221,5.823,59.693,11.647v-46.593 M319.366,987.15c-13.105-4.372-36.396-10.196-59.693-10.196
		c-82.983,0-145.586,55.326-145.586,136.853c0,77.16,55.321,138.305,142.677,138.305c21.839,0,52.411-5.819,68.427-10.191h1.457
		v-135.395H282.97v101.913c-5.824,1.457-16.015,2.909-26.2,2.909c-56.784,0-94.632-43.678-94.632-96.089
		c-1.458-52.411,39.306-93.175,98.998-93.175c18.93,0,42.221,5.818,59.693,11.643v-46.587h-1.463V987.15z M759.039,1208.444
		c52.411,0,90.266-42.221,90.266-94.633c0-52.411-37.854-94.632-90.266-94.632s-91.718,42.221-90.266,94.632
		C668.78,1166.218,706.628,1208.444,759.039,1208.444z M759.039,975.496c77.165,0,136.853,61.146,136.853,136.854
		c0,77.159-59.692,138.304-136.853,138.304s-136.853-61.145-136.853-138.304C622.192,1036.646,681.879,975.496,759.039,975.496z
		 M470.777,626.089l37.859,100.456h-78.617L470.777,626.089z M555.223,841.558h48.039L492.615,572.225h-45.13L338.296,841.558
		h48.039l29.12-72.787h109.189L555.223,841.558L555.223,841.558z M1523.377,573.677v186.349l-147.044-186.349h-40.769v267.881
		h43.679V646.47l152.867,195.088h34.944V573.677H1523.377L1523.377,573.677z M217.453,614.446c21.839,0,40.769,11.643,40.769,33.481
		s-16.016,36.396-39.307,36.396h-50.954v-69.878H217.453z M482.424,1020.632c27.664,0,46.588,11.648,46.588,39.312
		c0,26.2-17.467,39.306-43.678,39.306h-42.216v-80.074h39.306V1020.632L482.424,1020.632z M1313.732,1022.089
		c29.114,0,46.587,17.467,46.587,43.673s-18.93,42.221-50.954,42.221h-34.944v-85.894H1313.732z M223.282,725.093
		c26.205,0,42.221,14.558,42.221,37.854c0,23.297-17.467,37.854-50.954,37.854h-46.588v-75.702h55.321V725.093z M1258.406,573.677
		h-45.13v267.882h45.13V573.677z M124.283,167.491v267.882h168.883v-43.679H169.413V167.491H124.283L124.283,167.491z
		 M341.205,167.491v267.882h168.882v-43.679H386.335V167.491H341.205L341.205,167.491z M1015.278,167.491l-71.341,123.747
		l-77.16-123.747h-53.869L917.737,330.55l-65.518,106.274h50.954l161.596-267.881h-49.497v-1.452H1015.278z M1187.064,211.169
		c53.869,0,90.271,39.306,90.271,90.266c0,52.411-37.854,91.717-90.271,91.717h-39.306V211.169H1187.064z M1398.172,183.506
		c-18.93,13.105-29.12,33.481-29.12,56.778c0,45.136,34.944,65.517,71.341,77.165c32.03,10.19,58.23,18.924,58.23,45.13
		c0,26.2-24.748,36.396-48.039,36.396c-30.572,0-58.235-11.648-75.703-23.291l-1.457-1.463v45.136h1.457
		c16.016,8.733,45.131,18.924,77.16,18.924c46.588,0,91.718-30.572,91.718-80.074c0-45.13-30.572-66.969-72.788-80.069
		c-43.678-13.105-58.235-23.296-58.235-40.769c0-24.748,26.2-32.029,48.039-32.029c17.473,0,42.221,4.366,64.06,14.558h1.458
		v-42.221c-20.382-8.733-42.221-13.105-66.97-13.105C1436.022,166.033,1414.182,171.857,1398.172,183.506L1398.172,183.506z
		 M1115.729,979.868v170.34c0,34.939-20.382,59.693-58.236,59.693c-36.396,0-58.235-23.291-58.235-59.693v-170.34h-45.13v171.792
		c0,61.145,40.769,100.451,103.365,100.451c61.146,0,103.365-39.307,103.365-100.451V979.868H1115.729L1115.729,979.868z
		 M1111.362,573.677L999.257,700.339V573.677h-45.13v267.882h45.13V713.444l113.557,128.114h61.15l-123.753-136.854l117.929-131.028
		H1111.362L1111.362,573.677z M664.407,397.518c52.416,0,90.271-42.221,90.271-94.632c0-52.412-37.854-94.633-90.271-94.633
		c-52.412,0-91.718,42.221-90.266,94.633C572.69,355.298,611.995,397.518,664.407,397.518z M1230.742,979.868v267.882h43.678v-96.09
		h39.312c53.863,0,93.175-33.487,93.175-87.355c0-52.412-37.854-85.894-90.266-85.894h-85.898V979.868z M831.837,573.677v186.35
		l-145.591-186.35h-40.764v267.882h45.13V646.47l152.868,195.088h34.938V573.677H831.837L831.837,573.677z M396.526,979.868v267.882
		h45.136v-106.275h36.391l58.236,106.275h50.954l-64.055-112.104c32.03-11.648,50.948-40.769,50.948-74.251
		c0-53.863-36.396-81.526-90.265-81.526H396.526L396.526,979.868z M124.283,573.677v267.882h93.175
		c52.411,0,94.632-23.291,94.632-78.612c0-27.663-14.558-49.502-39.306-65.517c16.015-8.733,30.572-29.12,30.572-53.863
		c0-46.593-36.396-71.341-82.983-71.341h-96.09V573.677z M1102.628,167.491v267.882h84.441c77.165,0,138.31-56.784,138.31-133.938
		c0-77.165-62.602-133.938-138.31-133.938h-84.441V167.491z M664.407,164.576c77.165,0,136.853,61.15,136.853,136.853
		c0,77.16-59.693,138.306-136.853,138.306c-78.612,0-136.853-61.146-136.853-138.306
		C526.103,225.726,587.247,164.576,664.407,164.576z"/>
</g>
</svg>
