<?xml version="1.0" encoding="UTF-8" standalone="no"?>
<!-- Created with Inkscape (http://www.inkscape.org/) -->

<svg
   xmlns:dc="http://purl.org/dc/elements/1.1/"
   xmlns:cc="http://creativecommons.org/ns#"
   xmlns:rdf="http://www.w3.org/1999/02/22-rdf-syntax-ns#"
   xmlns:svg="http://www.w3.org/2000/svg"
   xmlns="http://www.w3.org/2000/svg"
   xmlns:sodipodi="http://sodipodi.sourceforge.net/DTD/sodipodi-0.dtd"
   xmlns:inkscape="http://www.inkscape.org/namespaces/inkscape"
   id="svg3388"
   version="1.1"
   inkscape:version="0.91 r13725"
   xml:space="preserve"
   width="493.875"
   height="172.5"
   viewBox="0 0 493.875 172.5"
   sodipodi:docname="SLI_LOGO_CMYK_1B.svg"><metadata
     id="metadata3394"><rdf:RDF><cc:Work
         rdf:about=""><dc:format>image/svg+xml</dc:format><dc:type
           rdf:resource="http://purl.org/dc/dcmitype/StillImage" /><dc:title></dc:title></cc:Work></rdf:RDF></metadata><defs
     id="defs3392" /><sodipodi:namedview
     pagecolor="#ffffff"
     bordercolor="#666666"
     borderopacity="1"
     objecttolerance="10"
     gridtolerance="10"
     guidetolerance="10"
     inkscape:pageopacity="0"
     inkscape:pageshadow="2"
     inkscape:window-width="1920"
     inkscape:window-height="1017"
     id="namedview3390"
     showgrid="false"
     inkscape:zoom="3.5737788"
     inkscape:cx="246.9375"
     inkscape:cy="86.25"
     inkscape:window-x="-8"
     inkscape:window-y="-8"
     inkscape:window-maximized="1"
     inkscape:current-layer="g3396" /><g
     id="g3396"
     inkscape:groupmode="layer"
     inkscape:label="SLI_LOGO_CMYK_1B"
     transform="matrix(1.25,0,0,-1.25,0,172.5)"><g
       id="g3398"
       transform="scale(0.24,0.24)"><path
         d="m 98.3672,317.805 c -10.5703,7.144 -32.8594,18.597 -41.4649,23.64 -10.164,5.93 -15.4375,8.578 -15.8437,16.239 -0.1875,3.711 0.2969,7 2.9766,9.859 3.9531,4.223 11.0195,4.965 22.5039,4.66 13.9882,-0.39 32.2343,-2.504 45.2849,-5.285 0.215,-0.047 -0.094,27.672 0.067,33.816 -11.9222,3.192 -30.8832,5.821 -46.6683,5.821 C 19.6563,406.512 0,391.238 0,355.039 c 0,-23.508 7.28906,-33.894 34.5859,-49.617 8.8516,-5.113 19.8164,-11.453 31.1602,-18.93 9.5156,-6.273 12.1523,-9.476 13.3477,-15.699 1.1718,-6.207 -1.5625,-12.84 -5.961,-15.547 -6.3164,-3.918 -13.2305,-4.379 -30.0937,-3.473 -14.2422,0.778 -28.7852,2.653 -40.71097,4.536 0,0 0.03515,-22.407 0.03515,-32.254 14.53902,-4.496 33.80472,-7.547 53.61722,-6.996 43.7812,1.187 65.9375,18.222 66.0155,55.011 0,18.692 -3.848,32.383 -23.6288,45.735"
         style="fill:#081b2d;fill-opacity:1;fill-rule:nonzero;stroke:none"
         id="path3400"
         inkscape:connector-curvature="0" /><path
         d="m 192.766,218.387 c -28.086,0.09 -40.7,9.558 -40.813,37.836 l 0,79.179 -20.297,0.043 0,27.418 20.297,0 0,27.965 39.981,6.93 0,-34.926 c 0,0 25.754,0.031 28.726,0.031 l 0,-27.418 c -2.972,0 -28.726,-0.043 -28.726,-0.043 l 0,-73.078 c 0,-5.027 -0.2,-9.082 1.039,-10.996 1.285,-1.91 1.769,-2.691 5.601,-3.031 4.621,-0.41 16.239,-0.258 23.766,0.402 l -0.055,-27.203 c -7.851,-2.238 -21.176,-3.109 -29.519,-3.109"
         style="fill:#081b2d;fill-opacity:1;fill-rule:nonzero;stroke:none"
         id="path3402"
         inkscape:connector-curvature="0" /><path
         d="m 317.488,253.543 c -4.832,-2.113 -9.922,-4.242 -18.297,-4.52 -10.8,-0.382 -17.675,4.672 -17.953,14.848 -0.015,0.473 -0.015,1.293 -0.015,1.727 0,9.414 2.91,13.136 7.672,15.57 4.89,2.785 15.101,3.52 28.527,2.785 l 0.066,-30.41 z m -16.043,111.469 c -14.187,0.136 -34.922,-2.305 -48.793,-6.332 l 0.059,-28.524 c 9.367,1 25.156,2.778 37.504,3.039 8.777,0.192 16.777,-0.257 21.336,-3.394 4.09,-2.781 5.996,-7.145 5.996,-14.383 l 0,-8.469 -12.262,0.035 c -41.523,-0.082 -61.609,-9.781 -62.387,-41.257 -0.011,-0.641 -0.027,-4.457 -0.027,-5.118 0.039,-23.234 13.688,-42.011 41.82,-42.132 13.836,0.05 24.352,2.875 33.653,10.308 l 0,-8.301 39.051,0 0,94.934 c -0.04,35.543 -23.024,49.297 -55.95,49.594"
         style="fill:#081b2d;fill-opacity:1;fill-rule:nonzero;stroke:none"
         id="path3404"
         inkscape:connector-curvature="0" /><path
         d="m 756.387,253.543 c -4.84,-2.113 -9.922,-4.242 -18.301,-4.52 -10.789,-0.382 -17.672,4.672 -17.957,14.848 -0.012,0.473 -0.012,1.293 -0.012,1.727 0,9.414 2.895,13.136 7.676,15.57 4.879,2.785 15.105,3.52 28.523,2.785 l 0.071,-30.41 z M 740.34,365.012 c -14.188,0.136 -34.902,-2.305 -48.801,-6.332 l 0.07,-28.524 c 9.352,1 25.145,2.778 37.504,3.039 8.778,0.192 16.774,-0.257 21.34,-3.394 4.086,-2.781 5.985,-7.145 5.985,-14.383 l 0,-8.469 -12.262,0.035 c -41.524,-0.082 -61.602,-9.781 -62.371,-41.257 -0.016,-0.641 -0.016,-4.457 -0.016,-5.118 0.027,-23.234 13.66,-42.011 41.793,-42.132 13.84,0.05 24.363,2.875 33.676,10.308 l 0,-8.301 39.039,0 0,94.934 c -0.059,35.543 -23.043,49.297 -55.957,49.594"
         style="fill:#081b2d;fill-opacity:1;fill-rule:nonzero;stroke:none"
         id="path3406"
         inkscape:connector-curvature="0" /><path
         d="m 469.449,220.555 0,88.039 c 0,8.808 -0.363,15.054 -3.558,18.586 -4.289,4.758 -8.391,5.781 -16.789,5.125 -7.36,-0.567 -16.274,-4.27 -21.817,-7.266 l -0.008,-104.484 -40.132,0 0,142.468 37.113,0.012 0,-11.457 c 11.949,8.305 24.531,13.383 41.039,13.434 32.183,-0.047 44.098,-22.52 44.098,-46.899 l 0,-97.558 -39.946,0"
         style="fill:#081b2d;fill-opacity:1;fill-rule:nonzero;stroke:none"
         id="path3408"
         inkscape:connector-curvature="0" /><path
         d="m 618.02,253.711 c -5.227,-3.051 -11.719,-4.68 -19.133,-4.68 -7.602,0 -13.176,1.594 -17.063,5.766 -5.566,5.973 -7.191,12.062 -7.386,30.988 -0.012,0.75 -0.012,11.512 -0.012,12.293 0,24.371 4.137,35.168 19.867,38.621 7.375,1.61 18.617,0.192 23.816,-0.996 l -0.089,-81.992 z m 0,157.055 0,-45.34 c -5.11,1.179 -15.145,2.051 -22.817,2.027 -17.683,-0.051 -31.953,-4.687 -41.43,-13.531 -11.777,-10.953 -18.769,-25.172 -19.136,-54.125 0,-1.07 -0.02,-21.813 -0.02,-22.918 0,-40.418 18.91,-58.402 51.309,-58.434 14.414,0 23.758,3.301 32.957,10.328 0,-7.39 0.027,-8.171 0.027,-8.171 l 39.098,0 0,190.164 -39.988,0"
         style="fill:#081b2d;fill-opacity:1;fill-rule:nonzero;stroke:none"
         id="path3410"
         inkscape:connector-curvature="0" /><path
         d="m 1002.38,253.711 c -5.255,-3.051 -11.716,-4.68 -19.114,-4.68 -7.618,0 -13.192,1.594 -17.075,5.766 -5.578,5.973 -7.191,12.062 -7.382,30.988 -0.012,0.75 -0.012,11.512 -0.012,12.293 0,24.371 4.129,35.168 19.855,38.621 7.371,1.61 18.625,0.192 23.818,-0.996 l -0.09,-81.992 z m 0,157.055 0,-45.34 c -5.103,1.179 -15.134,2.051 -22.814,2.027 -17.668,-0.051 -31.961,-4.687 -41.437,-13.531 -11.762,-10.953 -18.758,-25.172 -19.133,-54.125 -0.016,-1.07 -0.023,-21.813 -0.023,-22.918 0,-40.418 18.91,-58.402 51.304,-58.434 14.422,0 23.77,3.301 32.963,10.328 0,-7.39 0.02,-8.171 0.02,-8.171 l 39.12,0 0,190.164 -40,0"
         style="fill:#081b2d;fill-opacity:1;fill-rule:nonzero;stroke:none"
         id="path3412"
         inkscape:connector-curvature="0" /><path
         d="m 906.668,364.719 c -16.758,1.926 -35.191,-5.469 -41.664,-12.094 l 0,10.387 -39.211,0 0,-142.457 39.934,0 0,102.879 c 8.757,5.406 24.203,9.761 40.859,8.695 0,0 0.082,29.16 0.082,32.59"
         style="fill:#081b2d;fill-opacity:1;fill-rule:nonzero;stroke:none"
         id="path3414"
         inkscape:connector-curvature="0" /><path
         d="m 1417.8,335.184 0,27.781 c -4.22,0 -32.01,-0.051 -32.01,-0.051 l 0,10.566 c 0,5.071 -0.02,8.067 2.19,10.293 3.15,3.153 16.7,2.641 30,1.836 l 0,26.95 c -6.13,1.355 -18.77,2.894 -28.77,2.894 -27.47,0 -43.23,-8.656 -43.33,-44.035 l 0,-8.504 -22.04,0 0,-27.73 21.98,0 c 0,0 -0.01,-113.895 -0.01,-114.7 l 39.98,0 0,114.7 32.01,0"
         style="fill:#081b2d;fill-opacity:1;fill-rule:nonzero;stroke:none"
         id="path3416"
         inkscape:connector-curvature="0" /><path
         d="m 1465.52,305.457 c 0.2,21.059 10.54,29.531 24.12,29.578 13.91,-0.047 23.72,-8.969 24.13,-29.578 l -48.25,0 z m 85.25,-17.484 c 0.08,30.105 -2.05,41.343 -13.19,56.3 -8.25,11.079 -24.4,20.797 -47.04,20.797 -36.04,0 -63.82,-19.738 -64.07,-66.168 -0.03,-0.566 -0.03,-11.785 -0.03,-12.367 0,-48.144 24.99,-68.008 64.27,-68.058 21.35,0 39.06,3.132 55.2,9.226 0,9.012 -0.02,29.559 -0.02,29.559 -14.79,-3.422 -37.44,-7.949 -54.12,-6.157 -19.8,2.125 -25.72,13.239 -26.39,28.61 l 85.28,0.008 c 0.07,2.097 0.11,6.289 0.11,8.25"
         style="fill:#081b2d;fill-opacity:1;fill-rule:nonzero;stroke:none"
         id="path3418"
         inkscape:connector-curvature="0" /><path
         d="m 1177.82,254.641 c -1.94,0.199 -3.53,0.461 -4.6,1.519 -0.76,0.758 -1.26,1.668 -1.26,3.676 l 0,151.934 -42.53,0 0.05,-156.598 c 0,-14.535 2.91,-21.152 8.73,-26.781 5.74,-5.543 14.53,-7.907 24.37,-8.907 18.94,-1.914 54.06,-1.589 73.47,1.387 0,9.965 0,25.449 0,33.656 l -58.23,0.114"
         style="fill:#081b2d;fill-opacity:1;fill-rule:nonzero;stroke:none"
         id="path3420"
         inkscape:connector-curvature="0" /><path
         d="m 1301.91,359.578 0,-139.23 -39.09,0 0,139.23 39.09,0 z m 0,46.32 0,-31.82 -39.09,0 0,31.82 39.09,0"
         style="fill:#081b2d;fill-opacity:1;fill-rule:nonzero;stroke:none"
         id="path3422"
         inkscape:connector-curvature="0" /><path
         d="m 1509.07,469.84 41.54,-81.68 95.64,186.824 -137.18,-105.144"
         style="fill:#a09f9f;fill-opacity:1;fill-rule:nonzero;stroke:none"
         id="path3424"
         inkscape:connector-curvature="0" /><path
         d="m 808.254,0 c -27,0.0898438 -39.141,9.19141 -39.231,36.375 l 0,76.152 -19.527,0.028 0,26.34 19.527,0 0,26.906 38.422,6.679 0,-33.597 c 0,0 24.758,0.012 27.602,0.012 l 0,-26.34 c -2.844,0 -27.602,-0.028 -27.602,-0.028 l 0,-70.2809 c 0,-4.8281 -0.207,-8.7305 0.993,-10.5664 1.242,-1.8242 1.703,-2.5977 5.41,-2.9336 4.437,-0.3672 15.605,-0.2344 22.836,0.4062 L 836.629,2.98828 C 829.086,0.847656 816.273,0 808.254,0"
         style="fill:#a09f9f;fill-opacity:1;fill-rule:nonzero;stroke:none"
         id="path3426"
         inkscape:connector-curvature="0" /><path
         d="m 1399.74,0 c -27.02,0.0898438 -39.14,9.19141 -39.24,36.375 l 0,76.152 -19.52,0.028 0,26.34 19.52,0 0,26.906 38.43,6.679 0,-33.597 c 0,0 24.76,0.012 27.62,0.012 l 0,-26.34 c -2.86,0 -27.62,-0.028 -27.62,-0.028 l 0,-70.2809 c 0,-4.8281 -0.2,-8.7305 1,-10.5664 1.22,-1.8242 1.69,-2.5977 5.39,-2.9336 4.46,-0.3672 15.63,-0.2344 22.86,0.4062 L 1428.12,2.98828 C 1420.57,0.847656 1407.74,0 1399.74,0"
         style="fill:#a09f9f;fill-opacity:1;fill-rule:nonzero;stroke:none"
         id="path3428"
         inkscape:connector-curvature="0" /><path
         d="m 303.816,2.10156 0,84.63674 c 0,8.4726 -0.355,14.4647 -3.418,17.8947 -4.136,4.547 -8.066,5.539 -16.14,4.902 -7.082,-0.558 -15.668,-4.094 -20.973,-6.98 l -0.012,-100.45344 -38.585,0 0,136.97244 35.687,0 0,-11.011 c 11.496,8.007 23.578,12.875 39.457,12.921 30.957,-0.046 42.402,-21.671 42.402,-45.0973 l 0,-93.78514 -38.418,0"
         style="fill:#a09f9f;fill-opacity:1;fill-rule:nonzero;stroke:none"
         id="path3430"
         inkscape:connector-curvature="0" /><path
         d="m 1287.14,2.10156 0,84.63674 c 0,8.4726 -0.37,14.4647 -3.44,17.8947 -4.12,4.547 -8.05,5.539 -16.13,4.902 -7.07,-0.558 -15.66,-4.094 -20.97,-6.98 l 0,-100.45344 -38.6,0 0,136.97244 35.7,0 0,-11.011 c 11.49,8.007 23.57,12.875 39.43,12.921 30.97,-0.046 42.41,-21.671 42.41,-45.0973 l 0,-93.78514 -38.4,0"
         style="fill:#a09f9f;fill-opacity:1;fill-rule:nonzero;stroke:none"
         id="path3432"
         inkscape:connector-curvature="0" /><path
         d="m 1002.27,140.984 c -14.836,-0.046 -26.09,-4.914 -36.86,-12.921 0,0 -2.031,-1.571 -4.39,-3.758 -6.118,9.961 -16.555,16.652 -32.598,16.679 -14.848,-0.046 -26.125,-4.914 -36.867,-12.921 l 0,11.011 -33.348,0 0,-136.97244 36.047,0 0,100.45344 c 4.969,2.886 13,6.422 19.621,6.98 7.535,0.637 11.207,-0.355 15.098,-4.902 2.832,-3.43 3.172,-9.4221 3.172,-17.8947 l 0,-84.63674 35.976,0 0,100.45344 c 4.981,2.886 12.988,6.422 19.59,6.98 7.559,0.637 11.238,-0.355 15.109,-4.902 2.87,-3.43 3.19,-9.4221 3.19,-17.8947 l 0,-84.63674 35.9,0 0,93.78514 c 0,23.4263 -10.7,45.0513 -39.64,45.0973"
         style="fill:#a09f9f;fill-opacity:1;fill-rule:nonzero;stroke:none"
         id="path3434"
         inkscape:connector-curvature="0" /><path
         d="m 151.949,2.10156 40.75,0 0,178.352 -40.75,0 0,-178.352 z"
         style="fill:#a09f9f;fill-opacity:1;fill-rule:nonzero;stroke:none"
         id="path3436"
         inkscape:connector-curvature="0" /><path
         d="m 533.898,83.7344 c 0.204,20.2496 10.129,28.3866 23.2,28.4336 13.359,-0.047 22.824,-8.617 23.222,-28.4336 l -46.422,0 z m 81.969,-16.8125 c 0.09,28.9297 -1.988,39.7461 -12.672,54.1521 -7.933,10.614 -23.496,19.965 -45.215,19.965 -34.679,0 -61.394,-18.984 -61.64,-63.621 0,-0.5508 0,-11.3321 0,-11.8789 0,-46.3047 23.992,-65.398475 61.789,-65.4492562 20.535,0 37.566,3.0390662 53.078,8.8554662 0,8.66409 -0.008,28.46489 -0.008,28.46489 -14.254,-3.3047 -36.035,-7.6563 -52.066,-5.9454 -19.031,2.0391 -24.719,12.7344 -25.356,27.5079 l 81.985,0 c 0.078,2.0273 0.105,6.039 0.105,7.9492"
         style="fill:#a09f9f;fill-opacity:1;fill-rule:nonzero;stroke:none"
         id="path3438"
         inkscape:connector-curvature="0" /><path
         d="m 1102.34,83.7344 c 0.21,20.2496 10.13,28.3866 23.21,28.4336 13.35,-0.047 22.82,-8.617 23.22,-28.4336 l -46.43,0 z m 81.98,-16.8125 c 0.08,28.9297 -2,39.7461 -12.7,54.1521 -7.9,10.614 -23.47,19.965 -45.22,19.965 -34.66,0 -61.36,-18.984 -61.62,-63.621 0,-0.5508 0,-11.3321 0,-11.8789 0,-46.3047 24.01,-65.398475 61.78,-65.4492562 20.54,0 37.58,3.0390662 53.08,8.8554662 0,8.66409 -0.02,28.46489 -0.02,28.46489 -14.24,-3.3047 -36.03,-7.6563 -52.03,-5.9454 -19.04,2.0391 -24.73,12.7344 -25.36,27.5079 l 82,0 c 0.06,2.0273 0.08,6.039 0.09,7.9492"
         style="fill:#a09f9f;fill-opacity:1;fill-rule:nonzero;stroke:none"
         id="path3440"
         inkscape:connector-curvature="0" /><path
         d="m 729.672,136.48 c -11.359,2.708 -25.973,4.774 -39.84,4.774 -21.207,0 -35.371,-4.043 -43.848,-12.344 -6.543,-6.426 -9.886,-16.855 -9.886,-27.574 0,-15.2774 6.16,-24.3477 15.898,-30.8204 14.988,-9.957 28.563,-14.4531 41.074,-23.1289 5.055,-3.5156 5.61,-7.0312 4.485,-10.832 -1.563,-5.2266 -9.965,-6.668 -24.871,-5.9805 -12.731,0.5742 -26.481,2.3789 -34.735,3.836 l 0,-28.39067 c 10.172,-3.45312 27.114,-5.855467 41.524,-5.855467 23.379,0 38.64,5.031247 47.257,13.656237 7.02,7.0977 10.825,14.9063 10.825,30.1172 0,13.1719 -5.367,24.3906 -17.469,32.082 -16.672,10.586 -32.871,16.2774 -41.078,21.6328 -4.188,2.7657 -5.285,5.6527 -4.211,8.9497 0.625,1.902 2.496,3.277 5.715,3.898 3.746,0.734 9.379,0.664 16.57,0.102 11.727,-0.891 23.641,-2.598 32.613,-4.325 l -0.023,30.203"
         style="fill:#a09f9f;fill-opacity:1;fill-rule:nonzero;stroke:none"
         id="path3442"
         inkscape:connector-curvature="0" /><path
         d="m 1540.2,136.48 c -11.37,2.708 -25.98,4.774 -39.86,4.774 -21.19,0 -35.34,-4.043 -43.82,-12.344 -6.54,-6.426 -9.9,-16.855 -9.9,-27.574 0,-15.2774 6.15,-24.3477 15.92,-30.8204 14.96,-9.957 28.57,-14.4531 41.07,-23.1289 5.06,-3.5156 5.61,-7.0312 4.46,-10.832 -1.53,-5.2266 -9.94,-6.668 -24.85,-5.9805 -12.72,0.5742 -26.47,2.3789 -34.74,3.836 l 0,-28.39067 c 10.18,-3.45312 27.09,-5.855467 41.52,-5.855467 23.37,0 38.66,5.031247 47.26,13.656237 7.03,7.0977 10.81,14.9063 10.81,30.1172 0,13.1719 -5.33,24.3906 -17.44,32.082 -16.69,10.586 -32.9,16.2774 -41.08,21.6328 -4.19,2.7657 -5.3,5.6527 -4.22,8.9497 0.64,1.902 2.5,3.277 5.72,3.898 3.73,0.734 9.36,0.664 16.57,0.102 11.73,-0.891 23.63,-2.598 32.61,-4.325 l -0.03,30.203"
         style="fill:#a09f9f;fill-opacity:1;fill-rule:nonzero;stroke:none"
         id="path3444"
         inkscape:connector-curvature="0" /><path
         d="M 446.543,139.074 420.625,34.8047 394.691,139.074 l -41.433,0 37.301,-123.8162 C 393.836,4.31641 401.656,0.746094 413.848,0.746094 l 13.484,0 c 12.176,0 20.008,3.570316 23.293,14.511706 l 37.336,123.8162 -41.418,0"
         style="fill:#a09f9f;fill-opacity:1;fill-rule:nonzero;stroke:none"
         id="path3446"
         inkscape:connector-curvature="0" /></g></g></svg>