<?xml version="1.0" encoding="UTF-8" standalone="no"?>
<!-- Created with Inkscape (http://www.inkscape.org/) -->

<svg
   xmlns:dc="http://purl.org/dc/elements/1.1/"
   xmlns:cc="http://creativecommons.org/ns#"
   xmlns:rdf="http://www.w3.org/1999/02/22-rdf-syntax-ns#"
   xmlns:svg="http://www.w3.org/2000/svg"
   xmlns="http://www.w3.org/2000/svg"
   xmlns:xlink="http://www.w3.org/1999/xlink"
   xmlns:sodipodi="http://sodipodi.sourceforge.net/DTD/sodipodi-0.dtd"
   xmlns:inkscape="http://www.inkscape.org/namespaces/inkscape"
   width="663"
   height="320"
   id="svg2"
   version="1.1"
   inkscape:version="0.47 r22583">
  <g
     inkscape:label="Layer 1"
     inkscape:groupmode="layer"
     id="layer1"
     transform="translate(142.26334,-613.40037)">
    <path
       id="path13038"
       d="m 196.13607,710.64336 c 0.982,-1.44714 3.87629,-0.49099 5.94364,-0.43931 2.76508,0.0517 2.09319,4.16054 5.91779,3.3336 3.79875,-0.82694 3.85044,3.61787 9.30307,3.46282 5.45264,-0.15506 -1.08535,1.91229 -1.08535,1.91229 0,0 -3.38529,-1.62803 -5.58185,-0.54267 -1.13704,0.56852 0.43931,-0.33595 -1.49883,-1.9123 -2.99766,-2.45498 -2.58419,0.46515 -7.59751,-3.79876 -3.54034,-3.0235 -6.97731,0.36179 -5.40096,-2.01567"
       style="fill:#000000;fill-rule:evenodd;stroke:none" />
    <path
       id="path13040"
       d="m 155.20254,716.25105 c -3.23024,-5.19422 -0.82694,-11.68053 2.8426,-18.01179 2.68756,-4.6257 9.84576,-6.69305 16.0995,-4.23807 7.00314,-5.53016 8.68287,0.41347 14.88492,-2.27408 8.14019,-3.54034 3.59202,9.35476 11.47379,12.63668 3.25608,-8.70872 -7.44246,-15.24671 -0.72357,-19.32973 4.78075,-2.94597 8.39861,-4.75491 10.36259,-8.65703 2.79093,-5.58185 3.87629,-9.66486 6.047,-10.38844 4.96164,-1.70556 3.90213,-6.43462 3.90213,-6.43462 0,0 5.29758,1.55051 9.40644,-2.29993 -3.15271,-1.70556 -7.72672,-3.15271 -6.53799,-6.538 1.4213,-3.97965 12.094,4.10886 15.22086,-2.40329 -6.33126,-2.76508 -12.79173,-8.7604 -16.66801,-10.15586 -2.66171,2.89429 -4.31559,1.73141 -7.72672,-0.95615 -5.78858,-4.59985 -6.27958,-0.23258 -9.89744,-3.38529 -2.89429,5.78859 1.47299,5.32343 2.79092,6.79642 3.72123,4.08302 -3.77291,-3.66955 -3.04934,6.71889 0.20674,2.71339 -3.79876,3.20439 -6.74473,-2.63587 -1.55051,-3.04935 -13.85125,-2.4033 -15.71186,-5.32343 1.70556,-3.38529 16.17701,-15.45345 38.42687,-12.55916 -32.30235,-12.7142 -75.97513,1.16289 -76.41444,5.99532 -4.34143,2.7134 -2.8426,5.84027 -5.01332,6.56384 -3.77292,1.24041 -7.85593,12.74005 -7.85593,12.74005 0,0 2.32577,1.57635 -4.96164,9.74238 -6.02116,6.74473 -7.80425,16.92644 -7.80425,16.92644 0,0 3.97965,7.28741 3.23023,15.68602 -0.56852,6.38294 -0.85278,1.62803 1.9123,6.25373 1.65388,2.73924 3.41113,12.19737 4.49649,8.50198 2.04151,-7.02899 -3.77292,-13.56699 -2.79092,-20.57014 0.20673,0.87863 2.2224,-2.79092 2.14487,0.51684 -0.20673,8.65703 10.64686,25.32504 10.64686,25.32504 0,0 -4.05718,4.1347 0.18089,4.1347 l -1.05952,2.55835 c 0,0 3.12687,-0.18089 5.16838,1.47299 2.04151,1.67972 3.79876,3.72123 5.65937,3.72123 4.23807,0 31.24283,0 31.24283,0 0,0 2.22241,-9.48397 4.03134,-11.08617 1.80893,-1.62804 -3.64371,0 -5.24591,-1.62804 -1.62803,-1.60219 -2.63587,1.42131 -3.43697,3.0235 -0.80109,1.62804 -1.80893,4.44481 -4.23806,5.2459 -2.4033,0.82694 -8.24356,1.21457 -9.45813,1.21457 -1.21457,0 -4.83243,-6.89978 -4.83243,-6.89978"
       style="fill:#000000;fill-rule:nonzero;stroke:none" />
    <path
       id="path13042"
       d="m 301.57095,817.70627 c -1.21457,-1.60219 0.20673,-4.03133 0.20673,-4.03133 l -88.09497,0 9.79407,8.5795 c 2.17072,0.85279 4.88412,3.0235 6.12453,6.33126 2.94597,7.80425 -1.4213,1.47299 -1.4213,13.25689 0,10.85359 -3.04935,9.09634 -3.04935,9.09634 0,0 -0.67188,12.79173 -7.28741,20.6735 -4.21222,4.23807 -0.95615,7.75257 -0.95615,7.75257 0,0 -1.4213,0.8011 -3.48865,10.07833 -0.67189,3.0235 3.20439,7.6492 6.538,6.48631 2.50666,-0.85278 -6.07285,-1.70556 3.20439,-5.60769 3.59202,-1.52467 0.67189,-4.36727 0.67189,-4.36727 0,0 6.02116,-0.491 9.43228,-9.58734 5.99532,0.87862 3.77292,-2.79092 16.0995,-5.45264 3.28191,-0.72357 3.97965,-1.70556 3.56618,-4.78074 -0.41347,-3.07519 4.03133,0.43931 16.28038,-12.04232 9.63902,-9.84576 6.17621,-12.04232 12.84341,-15.63434 7.029,-3.74707 7.67504,0.33595 10.0525,-2.73924 5.37511,-7.00315 3.48865,-6.53799 5.73689,-11.00864 l 1.57636,-2.48082 c 0,0 3.38528,-2.89429 2.17072,-4.52233"
       style="fill:#000000;fill-rule:nonzero;stroke:none" />
    <path
       id="path13044"
       d="m 239.98975,723.71935 c -0.0775,0.982 -1.16289,1.16289 -1.93815,1.16289 l -0.41347,-1.96398 c 0.982,-0.0775 1.57636,0.38762 2.35162,0.80109"
       style="fill:#000000;fill-rule:nonzero;stroke:none" />
    <path
       id="path13046"
       d="m 232.96075,722.143 c -3.15271,0.69773 -6.46047,0 -9.40644,2.35161 -0.20674,-0.69773 -0.98199,-1.86061 -1.96398,-1.57635 l -1.16289,0 c 2.73924,-2.24825 -1.57635,-4.59986 3.12687,-4.67738 3.61786,0.0775 6.25373,2.63587 9.40644,3.90212"
       style="fill:#000000;fill-rule:nonzero;stroke:none" />
    <path
       id="path13048"
       d="m 342.11686,821.22077 c -20.26004,63.10587 -77.21554,112.1796 -149.39191,112.1796 -76.56949,0 -128.020677,-48.42768 -148.694181,-110.80998 21.526286,58.11839 80.006461,99.80134 148.797541,99.80134 69.30793,0 128.17573,-42.329 149.28855,-101.17096 z M 43.694825,724.95976 C 64.058226,662.03479 112.22749,613.40037 192.72495,613.40037 c 74.81224,0 129.77792,49.28046 149.72785,112.92901 -20.80271,-59.30711 -79.92894,-102.10126 -149.62449,-102.10126 -69.15287,0 -127.917302,42.12226 -149.133485,100.73164"
       style="fill:#000000;fill-rule:evenodd;stroke:none" />
    <path
       id="path13050"
       d="m -76.573285,740.36153 -24.549785,0 3.669546,4.36727 0,32.22483 c 0,7.26157 -4.806586,10.31091 -11.964786,10.31091 -7.1582,0 -11.96479,-3.04934 -11.96479,-10.31091 l 0,-32.22483 3.66954,-4.36727 -24.54978,0 3.66954,4.36727 0,32.76751 c 0,16.07365 8.99298,22.2757 29.17549,22.2757 20.182504,0 29.175478,-6.20205 29.175478,-22.2757 l 0,-32.76751 3.669547,-4.36727"
       style="fill:#000000;fill-rule:nonzero;stroke:none" />
    <path
       id="path13052"
       d="m 8.6273936,740.36153 -20.6993456,0 3.6695467,4.36727 0,29.35638 -29.6923197,-33.72365 -18.606154,0 3.669547,4.36727 0,49.53889 -3.669547,4.36727 20.699346,0 -3.669547,-4.36727 0,-29.87322 31.5270935,34.24049 13.1018332,0 0,-53.90616 3.6695469,-4.36727"
       style="fill:#000000;fill-rule:nonzero;stroke:none" />
    <path
       id="path13054"
       d="m 56.331504,798.63496 -3.669547,-4.36727 0,-49.53889 3.669547,-4.36727 -24.704837,0 3.669547,4.36727 0,49.53889 -3.669547,4.36727 24.704837,0"
       style="fill:#000000;fill-rule:nonzero;stroke:none" />
    <path
       id="path13056"
       d="m 137.86264,740.36153 -20.80272,0 3.66955,4.36727 -14.65235,32.06978 -14.161347,-32.06978 3.669547,-4.36727 -24.472261,0 27.185658,58.27343 12.145683,0 27.41824,-58.27343"
       style="fill:#000000;fill-rule:nonzero;stroke:none" />
    <path
       id="path13058"
       d="m 207.27393,798.63496 0,-15.81523 -4.36728,3.66955 -29.76985,0 0,-11.18953 18.86457,0 4.26391,3.66954 0,-18.94209 -4.26391,3.66954 -18.86457,0 0,-11.18953 29.76985,0 4.36728,3.66955 0,-15.81523 -54.86232,0 3.66955,4.36727 0,49.53889 -3.66955,4.36727 54.86232,0"
       style="fill:#000000;fill-rule:nonzero;stroke:none" />
    <path
       id="path13060"
       d="m 290.79488,798.63496 -15.81523,-22.97343 c 7.77841,-3.15271 13.2052,-9.17386 13.2052,-17.65 0,-9.69071 -5.94363,-17.65 -22.53412,-17.65 l -36.35952,0 3.66954,4.36727 0,49.53889 -3.66954,4.36727 24.36889,0 -3.66955,-4.36727 0,-16.51296 7.3391,0 11.18953,16.51296 -3.66955,4.36727 25.94525,0 z M 270.71574,759.2261 c 0,4.18638 -4.03133,7.59751 -9.61318,7.59751 l -11.11201,0 0,-14.3164 13.2052,0 c 3.85044,0 7.51999,1.9123 7.51999,6.71889"
       style="fill:#000000;fill-rule:evenodd;stroke:none" />
    <path
       id="path13062"
       d="m 364.59929,781.57932 c 0,-9.25139 -7.44246,-14.39392 -18.19268,-17.88258 -6.97731,-2.19656 -16.84891,-3.77291 -16.84891,-8.39861 0,-2.27408 2.7134,-3.85044 7.41662,-3.85044 6.30542,0 16.61633,2.63587 24.65315,6.46047 l 0,-19.45893 -4.65153,4.4448 c -4.88412,-2.01567 -13.36026,-4.10886 -19.20052,-4.10886 -19.84656,0 -26.20367,8.73456 -26.20367,16.69386 0,10.82774 7.1582,15.53096 18.42526,19.48477 8.37277,2.86845 16.15118,3.12687 16.15118,7.93346 0,4.10886 -4.80659,4.6257 -7.23573,4.6257 -6.20205,0 -17.21069,-2.17072 -27.00476,-8.55367 l 0,21.57797 4.62569,-5.065 c 4.54817,1.75724 14.78156,4.70322 23.15433,4.70322 17.21069,0 24.91157,-7.59752 24.91157,-18.60616"
       style="fill:#000000;fill-rule:nonzero;stroke:none" />
    <path
       id="path13064"
       d="m 451.71227,798.63496 -28.65865,-58.27343 -19.63983,0 2.0932,4.36727 -25.94525,53.90616 21.39708,0 -3.66955,-4.36727 2.89429,-6.12453 27.78002,0 2.79092,6.12453 -3.66954,4.36727 24.62731,0 z m -28.03844,-20.9836 -19.30389,0 9.61318,-20.88024 9.69071,20.88024"
       style="fill:#000000;fill-rule:evenodd;stroke:none" />
    <path
       id="path13066"
       d="m 520.73593,798.63496 0,-15.81523 -4.36728,3.66955 -28.03844,0 0,-41.76048 3.66955,-4.36727 -24.36889,0 3.66954,4.36727 0,49.53889 -3.66954,4.36727 53.10506,0"
       style="fill:#000000;fill-rule:nonzero;stroke:none" />
  </g>
</svg>
